{"glyphs":{"0":{"ha":776,"x_min":49,"x_max":725,"o":"m 388 -14 q 243 9 306 -14 q 138 85 181 32 q 72 226 94 138 q 49 446 49 315 q 71 678 49 585 q 137 828 93 772 q 243 908 181 883 q 386 932 306 932 q 534 908 471 932 q 640 828 597 883 q 703 679 682 772 q 725 446 725 586 q 686 172 725 272 q 572 28 647 71 q 388 -14 497 -14 m 388 101 q 475 117 438 101 q 538 172 513 133 q 576 277 564 210 q 589 446 589 344 q 577 628 589 557 q 540 741 565 700 q 478 799 515 782 q 388 817 440 817 q 299 799 338 817 q 235 742 260 782 q 199 629 211 701 q 186 444 186 557 q 199 276 186 343 q 238 171 213 208 q 301 117 264 133 q 388 101 339 101 z "},"1":{"ha":776,"x_min":136,"x_max":553,"o":"m 421 0 l 421 771 l 192 624 l 136 722 l 432 917 l 553 917 l 553 0 l 421 0 z "},"2":{"ha":776,"x_min":92,"x_max":683,"o":"m 92 0 l 92 110 l 340 369 q 441 477 399 429 q 506 570 483 525 q 528 665 528 615 q 481 782 528 750 q 340 814 435 814 q 260 809 304 814 q 176 798 217 804 q 107 785 136 792 l 99 892 q 172 910 128 901 q 267 924 215 918 q 368 931 318 931 q 590 872 515 931 q 664 682 664 813 q 643 558 664 613 q 580 452 622 504 q 471 338 538 400 l 246 114 l 683 114 l 683 0 l 92 0 z "},"3":{"ha":776,"x_min":82,"x_max":689,"o":"m 382 -14 q 273 -8 329 -14 q 166 7 217 -1 q 82 24 115 15 l 92 129 q 171 117 124 124 q 270 106 218 111 q 367 101 322 101 q 507 142 461 101 q 553 263 553 182 q 530 353 553 319 q 467 401 507 386 q 378 418 428 417 l 193 418 l 193 531 l 376 531 q 447 548 411 531 q 508 599 483 565 q 532 681 532 633 q 491 784 532 753 q 356 815 450 815 q 264 811 311 815 q 175 801 217 807 q 104 789 133 794 l 96 893 q 168 910 124 901 q 263 926 213 919 q 363 932 314 932 q 541 906 474 932 q 638 828 608 881 q 668 690 668 775 q 653 603 668 639 q 615 544 638 568 q 572 505 593 519 q 538 483 550 490 q 617 442 583 465 q 669 378 650 419 q 689 265 689 336 q 656 108 689 169 q 556 16 624 46 q 382 -14 488 -14 z "},"4":{"ha":776,"x_min":53,"x_max":726,"o":"m 488 0 l 488 171 l 53 171 l 53 271 l 297 917 l 446 917 l 189 286 l 488 286 l 490 557 l 619 557 l 619 286 l 726 286 l 726 171 l 619 171 l 619 0 l 488 0 z "},"5":{"ha":776,"x_min":81,"x_max":704,"o":"m 392 -12 q 282 -6 340 -12 q 170 10 224 1 q 81 29 117 19 l 94 132 q 178 119 129 126 q 281 106 228 111 q 378 101 333 101 q 517 151 467 101 q 568 294 568 200 q 547 394 568 358 q 485 446 525 431 q 392 461 444 461 q 313 453 351 461 q 240 434 274 446 q 186 411 207 422 l 97 428 l 121 917 l 667 917 l 667 797 l 229 797 l 206 529 q 261 551 228 539 q 333 571 294 563 q 408 579 372 579 q 566 553 500 579 q 668 467 632 526 q 704 307 704 407 q 667 129 704 200 q 559 23 629 58 q 392 -12 489 -12 z "},"6":{"ha":776,"x_min":64,"x_max":721,"o":"m 397 -14 q 208 42 282 -14 q 99 206 133 99 q 64 461 64 313 q 89 677 64 588 q 162 823 114 767 q 277 905 210 879 q 426 931 344 931 q 517 926 469 931 q 610 916 565 922 q 685 904 654 910 l 672 800 q 604 806 646 803 q 517 813 563 810 q 428 815 471 815 q 258 741 317 815 q 197 528 200 667 q 234 539 211 531 q 288 556 257 547 q 351 572 319 565 q 414 578 383 578 q 643 508 565 578 q 721 289 721 438 q 683 123 721 192 q 572 20 644 54 q 397 -14 500 -14 m 397 100 q 540 149 490 100 q 589 290 589 199 q 540 421 589 378 q 403 464 490 464 q 328 456 367 464 q 254 437 289 447 q 196 415 219 426 q 217 254 197 326 q 280 141 236 182 q 397 100 324 100 z "},"7":{"ha":776,"x_min":103,"x_max":679,"o":"m 339 -14 l 213 21 l 543 760 l 543 796 l 103 796 l 103 917 l 679 917 l 679 756 l 339 -14 z "},"8":{"ha":776,"x_min":40,"x_max":735,"o":"m 386 -14 q 253 -2 315 -14 q 143 38 192 10 q 67 115 94 67 q 40 235 40 163 q 60 349 40 304 q 113 422 79 393 q 193 478 147 451 q 117 531 147 503 q 71 598 86 558 q 56 693 56 638 q 97 828 56 775 q 212 906 138 881 q 386 932 286 932 q 560 906 485 932 q 678 828 635 881 q 721 692 721 775 q 706 594 721 633 q 658 528 690 556 q 574 478 626 501 q 659 426 622 456 q 715 356 696 397 q 735 249 735 314 q 708 122 735 172 q 632 41 681 71 q 520 -1 583 11 q 386 -14 457 -14 m 386 101 q 494 115 447 101 q 569 165 542 129 q 596 261 596 201 q 576 340 596 311 q 524 388 557 369 q 450 418 492 406 l 315 418 q 215 363 251 400 q 179 256 179 325 q 206 164 179 199 q 280 115 233 129 q 386 101 326 101 m 315 528 l 450 528 q 547 583 513 550 q 582 675 582 617 q 531 784 582 751 q 386 817 479 817 q 246 785 297 817 q 194 676 194 753 q 225 583 194 618 q 315 528 256 549 z "},"9":{"ha":776,"x_min":53,"x_max":711,"o":"m 344 -14 q 254 -10 303 -14 q 161 1 206 -6 q 86 13 117 7 l 97 118 q 167 111 126 115 q 255 103 208 107 q 343 100 301 100 q 517 172 460 100 q 576 392 575 244 q 503 367 543 379 q 426 349 464 356 q 354 342 388 342 q 131 410 208 342 q 53 626 53 479 q 92 790 53 722 q 204 894 132 858 q 375 931 276 931 q 567 874 493 931 q 676 710 640 817 q 711 457 711 603 q 685 231 711 322 q 613 86 660 140 q 498 9 565 32 q 344 -14 431 -14 m 367 456 q 439 463 400 456 q 515 482 478 471 q 578 503 553 493 q 556 665 576 594 q 492 776 536 736 q 375 817 449 817 q 235 765 286 817 q 185 625 185 714 q 231 497 185 538 q 367 456 278 456 z "},"A":{"ha":835,"x_min":28,"x_max":807,"o":"m 28 0 l 285 957 l 550 957 l 807 0 l 672 0 l 610 229 l 224 229 l 161 0 l 28 0 m 250 343 l 585 343 l 451 846 l 383 846 l 250 343 z "},"Á":{"ha":835,"x_min":28,"x_max":807,"o":"m 28 0 l 285 957 l 550 957 l 807 0 l 672 0 l 610 229 l 224 229 l 161 0 l 28 0 m 250 343 l 585 343 l 451 846 l 383 846 l 250 343 m 311 1068 l 257 1139 l 535 1282 l 601 1196 l 311 1068 z "},"Ă":{"ha":835,"x_min":28,"x_max":807,"o":"m 28 0 l 285 957 l 550 957 l 807 0 l 672 0 l 610 229 l 224 229 l 161 0 l 28 0 m 250 343 l 585 343 l 451 846 l 383 846 l 250 343 m 414 1079 q 298 1103 346 1079 q 224 1170 250 1128 q 194 1267 197 1213 l 300 1268 q 335 1197 303 1224 q 414 1169 367 1169 q 494 1197 463 1169 q 529 1268 526 1224 l 635 1267 q 606 1170 632 1213 q 531 1103 579 1128 q 414 1079 483 1079 z "},"Â":{"ha":835,"x_min":28,"x_max":807,"o":"m 28 0 l 285 957 l 550 957 l 807 0 l 672 0 l 610 229 l 224 229 l 161 0 l 28 0 m 250 343 l 585 343 l 451 846 l 383 846 l 250 343 m 181 1086 l 361 1274 l 468 1274 l 651 1086 l 518 1086 l 417 1193 l 314 1086 l 181 1086 z "},"Ä":{"ha":835,"x_min":28,"x_max":807,"o":"m 28 0 l 285 957 l 550 957 l 807 0 l 672 0 l 610 229 l 224 229 l 161 0 l 28 0 m 250 343 l 585 343 l 451 846 l 383 846 l 250 343 m 500 1106 l 500 1242 l 617 1242 l 617 1106 l 500 1106 m 215 1106 l 215 1242 l 332 1242 l 332 1106 l 215 1106 z "},"À":{"ha":835,"x_min":28,"x_max":807,"o":"m 28 0 l 285 957 l 550 957 l 807 0 l 672 0 l 610 229 l 224 229 l 161 0 l 28 0 m 250 343 l 585 343 l 451 846 l 383 846 l 250 343 m 513 1068 l 222 1197 l 290 1282 l 567 1138 l 513 1068 z "},"Å":{"ha":835,"x_min":28,"x_max":807,"o":"m 28 0 l 285 957 l 550 957 l 807 0 l 672 0 l 610 229 l 224 229 l 161 0 l 28 0 m 250 343 l 585 343 l 451 846 l 383 846 l 250 343 m 417 882 q 295 920 343 882 q 247 1028 247 958 q 269 1108 247 1075 q 331 1158 292 1142 q 417 1175 369 1175 q 536 1137 488 1175 q 585 1028 585 1099 q 536 920 585 958 q 417 882 488 882 m 417 958 q 460 967 442 958 q 488 992 478 976 q 497 1028 497 1007 q 476 1080 497 1063 q 417 1097 456 1097 q 374 1089 392 1097 q 346 1065 356 1081 q 336 1028 336 1050 q 358 977 336 996 q 417 958 379 958 z "},"Ã":{"ha":835,"x_min":28,"x_max":807,"o":"m 28 0 l 285 957 l 550 957 l 807 0 l 672 0 l 610 229 l 224 229 l 161 0 l 28 0 m 250 343 l 585 343 l 451 846 l 383 846 l 250 343 m 526 1100 q 471 1110 503 1100 q 406 1135 439 1121 q 345 1161 372 1150 q 303 1172 318 1172 q 253 1150 285 1172 q 200 1108 222 1128 l 174 1196 q 210 1232 189 1214 q 256 1263 232 1250 q 301 1276 279 1276 q 360 1266 328 1276 q 424 1242 393 1256 q 482 1217 456 1228 q 525 1206 508 1206 q 570 1226 540 1206 q 624 1265 600 1246 l 650 1178 q 616 1143 636 1161 q 572 1113 596 1125 q 526 1100 549 1100 z "},"Æ":{"ha":1218,"x_min":22,"x_max":1157,"o":"m 22 0 l 321 963 l 1157 963 l 1157 840 l 690 840 l 690 551 l 1074 551 l 1074 432 l 690 432 l 690 121 l 1157 121 l 1157 0 l 560 0 l 560 225 l 232 225 l 160 0 l 22 0 m 263 347 l 560 347 l 561 840 l 417 840 l 263 347 z "},"B":{"ha":853,"x_min":108,"x_max":786,"o":"m 108 0 l 108 957 l 467 957 q 626 932 561 957 q 724 853 690 907 q 758 714 758 800 q 744 611 758 653 q 705 541 731 569 q 640 493 679 513 q 715 452 682 478 q 767 382 749 426 q 786 269 786 338 q 765 141 786 193 q 703 58 743 89 q 606 14 663 28 q 482 0 550 0 l 108 0 m 242 110 l 475 110 q 570 124 531 110 q 632 174 610 139 q 654 275 654 210 q 635 358 654 326 q 588 405 617 389 q 528 426 560 421 q 469 432 497 432 l 242 432 l 242 110 m 242 540 l 468 540 q 560 558 525 540 q 610 610 594 575 q 626 700 626 646 q 585 812 626 776 q 460 847 544 847 l 242 847 l 242 540 z "},"C":{"ha":754,"x_min":75,"x_max":701,"o":"m 432 -14 q 253 17 324 -14 q 144 109 183 47 q 90 263 106 171 q 75 476 75 356 q 90 693 75 600 q 145 848 106 786 q 254 941 185 910 q 433 972 324 972 q 532 967 482 972 q 626 955 582 963 q 701 940 669 947 l 696 831 q 623 841 667 836 q 534 850 579 846 q 451 854 489 854 q 329 832 376 854 q 256 764 282 810 q 222 647 231 718 q 213 476 213 576 q 222 308 213 379 q 256 192 231 238 q 328 126 281 147 q 453 104 376 104 q 580 111 511 104 q 697 126 649 118 l 701 15 q 623 1 668 8 q 528 -10 578 -6 q 432 -14 479 -14 z "},"Ç":{"ha":754,"x_min":75,"x_max":701,"o":"m 432 -14 q 253 17 324 -14 q 144 109 183 47 q 90 263 106 171 q 75 476 75 356 q 90 693 75 600 q 145 848 106 786 q 254 941 185 910 q 433 972 324 972 q 532 967 482 972 q 626 955 582 963 q 701 940 669 947 l 696 831 q 623 841 667 836 q 534 850 579 846 q 451 854 489 854 q 329 832 376 854 q 256 764 282 810 q 222 647 231 718 q 213 476 213 576 q 222 308 213 379 q 256 192 231 238 q 328 126 281 147 q 453 104 376 104 q 580 111 511 104 q 697 126 649 118 l 701 15 q 623 1 668 8 q 528 -10 578 -6 q 432 -14 479 -14 m 472 -303 q 401 -300 436 -303 q 346 -293 365 -297 l 350 -221 q 391 -223 361 -222 q 438 -224 421 -224 q 482 -212 467 -224 q 497 -174 497 -200 q 482 -140 497 -149 q 438 -131 467 -131 l 385 -131 l 385 4 l 449 4 l 449 -62 q 537 -72 501 -62 q 590 -106 572 -82 q 607 -175 607 -129 q 570 -273 607 -243 q 472 -303 533 -303 z "},"D":{"ha":896,"x_min":108,"x_max":825,"o":"m 108 0 l 108 957 l 457 957 q 635 924 564 957 q 749 829 707 890 q 808 683 790 768 q 825 493 825 597 q 808 298 825 388 q 750 141 792 208 q 638 37 708 74 q 458 0 567 0 l 108 0 m 242 115 l 456 115 q 573 146 528 115 q 643 229 618 176 q 678 349 668 282 q 688 493 688 417 q 678 631 688 568 q 643 742 668 694 q 573 815 618 789 q 456 840 528 840 l 242 840 l 242 115 z "},"Ð":{"ha":900,"x_min":25,"x_max":831,"o":"m 25 424 l 25 539 l 449 539 l 449 424 l 25 424 m 114 0 l 114 957 l 463 957 q 640 924 569 957 q 753 829 711 890 q 813 683 794 768 q 831 493 831 597 q 814 298 831 388 q 756 141 797 208 q 643 37 714 74 q 464 0 572 0 l 114 0 m 247 115 l 460 115 q 578 146 533 115 q 649 229 624 176 q 683 349 674 282 q 693 493 693 417 q 683 631 693 568 q 648 742 674 694 q 577 815 622 789 q 460 840 532 840 l 247 840 l 247 115 z "},"E":{"ha":768,"x_min":108,"x_max":708,"o":"m 108 0 l 108 957 l 708 957 l 708 842 l 242 842 l 242 542 l 625 542 l 625 429 l 242 429 l 242 115 l 708 115 l 708 0 l 108 0 z "},"É":{"ha":768,"x_min":108,"x_max":708,"o":"m 108 0 l 108 957 l 708 957 l 708 842 l 242 842 l 242 542 l 625 542 l 625 429 l 242 429 l 242 115 l 708 115 l 708 0 l 108 0 m 294 1068 l 240 1139 l 518 1282 l 585 1196 l 294 1068 z "},"Ê":{"ha":768,"x_min":108,"x_max":708,"o":"m 108 0 l 108 957 l 708 957 l 708 842 l 242 842 l 242 542 l 625 542 l 625 429 l 242 429 l 242 115 l 708 115 l 708 0 l 108 0 m 171 1086 l 351 1274 l 458 1274 l 642 1086 l 508 1086 l 407 1193 l 304 1086 l 171 1086 z "},"Ë":{"ha":768,"x_min":108,"x_max":708,"o":"m 108 0 l 108 957 l 708 957 l 708 842 l 242 842 l 242 542 l 625 542 l 625 429 l 242 429 l 242 115 l 708 115 l 708 0 l 108 0 m 492 1106 l 492 1242 l 608 1242 l 608 1106 l 492 1106 m 207 1106 l 207 1242 l 324 1242 l 324 1106 l 207 1106 z "},"È":{"ha":768,"x_min":108,"x_max":708,"o":"m 108 0 l 108 957 l 708 957 l 708 842 l 242 842 l 242 542 l 625 542 l 625 429 l 242 429 l 242 115 l 708 115 l 708 0 l 108 0 m 515 1068 l 225 1197 l 293 1282 l 569 1138 l 515 1068 z "},"F":{"ha":729,"x_min":108,"x_max":694,"o":"m 108 0 l 108 957 l 694 957 l 694 840 l 242 840 l 242 494 l 622 494 l 622 379 l 242 379 l 242 0 l 108 0 z "},"G":{"ha":856,"x_min":72,"x_max":769,"o":"m 453 -14 q 265 18 339 -14 q 149 113 192 50 q 90 268 107 176 q 72 476 72 360 q 90 691 72 599 q 152 846 108 783 q 268 940 196 908 q 450 972 340 972 q 564 967 504 972 q 678 951 624 961 q 769 933 732 942 l 765 826 q 676 839 729 833 q 567 849 622 844 q 465 854 511 854 q 336 832 386 854 q 258 763 286 810 q 220 646 231 717 q 210 476 210 575 q 229 267 210 350 q 303 143 249 183 q 461 103 357 103 q 524 105 490 103 q 588 111 557 107 q 640 118 619 115 l 640 386 l 497 386 l 497 497 l 769 497 l 769 21 q 704 10 744 17 q 619 -1 664 4 q 531 -10 575 -7 q 453 -14 486 -14 z "},"H":{"ha":935,"x_min":108,"x_max":826,"o":"m 108 0 l 108 957 l 242 957 l 242 538 l 693 538 l 693 957 l 826 957 l 826 0 l 693 0 l 693 422 l 242 422 l 242 0 l 108 0 z "},"I":{"ha":351,"x_min":108,"x_max":242,"o":"m 108 0 l 108 957 l 242 957 l 242 0 l 108 0 z "},"Í":{"ha":351,"x_min":22,"x_max":367,"o":"m 108 0 l 108 957 l 242 957 l 242 0 l 108 0 m 76 1068 l 22 1139 l 300 1282 l 367 1196 l 76 1068 z "},"Î":{"ha":350,"x_min":-65,"x_max":406,"o":"m 108 0 l 108 957 l 242 957 l 242 0 l 108 0 m -65 1086 l 115 1274 l 222 1274 l 406 1086 l 272 1086 l 171 1193 l 68 1086 l -65 1086 z "},"Ï":{"ha":351,"x_min":-25,"x_max":375,"o":"m 108 0 l 108 957 l 242 957 l 242 0 l 108 0 m 258 1106 l 258 1242 l 375 1242 l 375 1106 l 258 1106 m -26 1106 l -26 1242 l 90 1242 l 90 1106 l -26 1106 z "},"Ì":{"ha":350,"x_min":-29,"x_max":314,"o":"m 108 0 l 108 957 l 242 957 l 242 0 l 108 0 m 260 1068 l -31 1197 l 38 1282 l 314 1138 l 260 1068 z "},"J":{"ha":406,"x_min":25,"x_max":303,"o":"m 25 -92 l 25 25 q 97 29 68 25 q 141 49 125 33 q 163 96 157 64 q 169 181 169 128 l 169 957 l 303 957 l 303 146 q 286 18 303 65 q 235 -53 269 -29 q 149 -84 201 -76 q 25 -92 96 -92 z "},"K":{"ha":797,"x_min":108,"x_max":779,"o":"m 108 0 l 108 957 l 242 957 l 242 525 l 389 529 l 615 957 l 764 957 l 506 478 l 779 0 l 626 0 l 390 410 l 242 406 l 242 0 l 108 0 z "},"L":{"ha":665,"x_min":108,"x_max":649,"o":"m 108 0 l 108 957 l 242 957 l 242 117 l 649 117 l 649 0 l 108 0 z "},"M":{"ha":1169,"x_min":108,"x_max":1061,"o":"m 108 0 l 108 957 l 339 957 l 585 199 l 829 957 l 1061 957 l 1061 0 l 928 0 l 928 804 l 908 804 l 654 32 l 515 32 l 263 804 l 242 804 l 242 0 l 108 0 z "},"N":{"ha":942,"x_min":108,"x_max":833,"o":"m 108 0 l 108 957 l 328 957 l 672 149 l 700 149 l 700 957 l 833 957 l 833 0 l 618 0 l 268 810 l 242 810 l 242 0 l 108 0 z "},"Ñ":{"ha":942,"x_min":108,"x_max":833,"o":"m 108 0 l 108 957 l 328 957 l 672 149 l 700 149 l 700 957 l 833 957 l 833 0 l 618 0 l 268 810 l 242 810 l 242 0 l 108 0 m 582 1100 q 526 1110 558 1100 q 461 1135 494 1121 q 401 1161 428 1150 q 358 1172 374 1172 q 309 1150 340 1172 q 256 1108 278 1128 l 229 1196 q 266 1232 244 1214 q 311 1263 288 1250 q 357 1276 335 1276 q 416 1266 383 1276 q 480 1242 449 1256 q 538 1217 511 1228 q 581 1206 564 1206 q 626 1226 596 1206 q 679 1265 656 1246 l 706 1178 q 672 1143 692 1161 q 628 1113 651 1125 q 582 1100 604 1100 z "},"O":{"ha":918,"x_min":72,"x_max":846,"o":"m 460 -14 q 224 41 308 -14 q 106 205 140 96 q 72 474 72 314 q 107 745 72 635 q 226 914 142 856 q 460 972 310 972 q 692 915 608 972 q 811 746 776 857 q 846 474 846 635 q 812 201 846 310 q 694 39 778 92 q 460 -14 610 -14 m 460 101 q 616 142 563 101 q 689 265 669 182 q 708 474 708 347 q 689 683 708 597 q 615 813 669 768 q 460 857 561 857 q 303 813 357 857 q 230 683 250 768 q 210 474 210 599 q 229 268 210 351 q 302 143 249 185 q 460 101 356 101 z "},"Ó":{"ha":918,"x_min":72,"x_max":846,"o":"m 460 -14 q 224 41 308 -14 q 106 205 140 96 q 72 474 72 314 q 107 745 72 635 q 226 914 142 856 q 460 972 310 972 q 692 915 608 972 q 811 746 776 857 q 846 474 846 635 q 812 201 846 310 q 694 39 778 92 q 460 -14 610 -14 m 460 101 q 616 142 563 101 q 689 265 669 182 q 708 474 708 347 q 689 683 708 597 q 615 813 669 768 q 460 857 561 857 q 303 813 357 857 q 230 683 250 768 q 210 474 210 599 q 229 268 210 351 q 302 143 249 185 q 460 101 356 101 m 328 1068 l 274 1139 l 551 1282 l 618 1196 l 328 1068 z "},"Ô":{"ha":918,"x_min":72,"x_max":846,"o":"m 460 -14 q 224 41 308 -14 q 106 205 140 96 q 72 474 72 314 q 107 745 72 635 q 226 914 142 856 q 460 972 310 972 q 692 915 608 972 q 811 746 776 857 q 846 474 846 635 q 812 201 846 310 q 694 39 778 92 q 460 -14 610 -14 m 460 101 q 616 142 563 101 q 689 265 669 182 q 708 474 708 347 q 689 683 708 597 q 615 813 669 768 q 460 857 561 857 q 303 813 357 857 q 230 683 250 768 q 210 474 210 599 q 229 268 210 351 q 302 143 249 185 q 460 101 356 101 m 224 1086 l 404 1274 l 511 1274 l 694 1086 l 561 1086 l 460 1193 l 357 1086 l 224 1086 z "},"Ö":{"ha":918,"x_min":72,"x_max":846,"o":"m 460 -14 q 224 41 308 -14 q 106 205 140 96 q 72 474 72 314 q 107 745 72 635 q 226 914 142 856 q 460 972 310 972 q 692 915 608 972 q 811 746 776 857 q 846 474 846 635 q 812 201 846 310 q 694 39 778 92 q 460 -14 610 -14 m 460 101 q 616 142 563 101 q 689 265 669 182 q 708 474 708 347 q 689 683 708 597 q 615 813 669 768 q 460 857 561 857 q 303 813 357 857 q 230 683 250 768 q 210 474 210 599 q 229 268 210 351 q 302 143 249 185 q 460 101 356 101 m 543 1106 l 543 1242 l 660 1242 l 660 1106 l 543 1106 m 258 1106 l 258 1242 l 375 1242 l 375 1106 l 258 1106 z "},"Ò":{"ha":918,"x_min":72,"x_max":846,"o":"m 460 -14 q 224 41 308 -14 q 106 205 140 96 q 72 474 72 314 q 107 745 72 635 q 226 914 142 856 q 460 972 310 972 q 692 915 608 972 q 811 746 776 857 q 846 474 846 635 q 812 201 846 310 q 694 39 778 92 q 460 -14 610 -14 m 460 101 q 616 142 563 101 q 689 265 669 182 q 708 474 708 347 q 689 683 708 597 q 615 813 669 768 q 460 857 561 857 q 303 813 357 857 q 230 683 250 768 q 210 474 210 599 q 229 268 210 351 q 302 143 249 185 q 460 101 356 101 m 560 1068 l 269 1197 l 338 1282 l 614 1138 l 560 1068 z "},"Ø":{"ha":918,"x_min":72,"x_max":846,"o":"m 424 329 l 361 397 l 722 1094 l 789 1042 l 424 329 m 235 -153 l 131 -112 l 394 456 l 504 424 l 235 -153 m 460 -14 q 224 41 308 -14 q 106 205 140 96 q 72 474 72 314 q 107 745 72 635 q 226 914 142 856 q 460 972 310 972 q 692 915 608 972 q 811 746 776 857 q 846 474 846 635 q 812 201 846 310 q 694 39 778 92 q 460 -14 610 -14 m 460 101 q 616 142 563 101 q 689 265 669 182 q 708 474 708 347 q 689 683 708 597 q 615 813 669 768 q 460 857 561 857 q 303 813 357 857 q 230 683 250 768 q 210 474 210 599 q 229 268 210 351 q 302 143 249 185 q 460 101 356 101 z "},"Õ":{"ha":918,"x_min":72,"x_max":846,"o":"m 460 -14 q 224 41 308 -14 q 106 205 140 96 q 72 474 72 314 q 107 745 72 635 q 226 914 142 856 q 460 972 310 972 q 692 915 608 972 q 811 746 776 857 q 846 474 846 635 q 812 201 846 310 q 694 39 778 92 q 460 -14 610 -14 m 460 101 q 616 142 563 101 q 689 265 669 182 q 708 474 708 347 q 689 683 708 597 q 615 813 669 768 q 460 857 561 857 q 303 813 357 857 q 230 683 250 768 q 210 474 210 599 q 229 268 210 351 q 302 143 249 185 q 460 101 356 101 m 571 1100 q 515 1110 547 1100 q 450 1135 483 1121 q 390 1161 417 1150 q 347 1172 363 1172 q 298 1150 329 1172 q 244 1108 267 1128 l 218 1196 q 255 1232 233 1214 q 300 1263 276 1250 q 346 1276 324 1276 q 405 1266 372 1276 q 469 1242 438 1256 q 526 1217 500 1228 q 569 1206 553 1206 q 615 1226 585 1206 q 668 1265 644 1246 l 694 1178 q 660 1143 681 1161 q 617 1113 640 1125 q 571 1100 593 1100 z "},"Œ":{"ha":1278,"x_min":68,"x_max":1217,"o":"m 438 -14 q 209 42 289 -14 q 99 209 129 99 q 68 482 68 319 q 85 701 68 608 q 144 853 103 793 q 257 942 185 914 q 439 971 329 971 q 502 969 465 971 q 576 965 539 968 q 643 957 614 961 l 1217 957 l 1217 840 l 763 840 l 763 544 l 1133 544 l 1133 431 l 763 431 l 763 117 l 1217 117 l 1217 -1 l 650 -1 q 581 -8 621 -4 q 503 -12 542 -11 q 438 -14 465 -14 m 460 103 q 493 103 472 103 q 540 106 514 104 q 589 108 565 107 q 629 111 613 110 l 629 844 q 589 847 614 846 q 538 850 564 849 q 491 853 513 851 q 458 854 469 854 q 300 817 354 854 q 226 697 246 779 q 206 479 206 614 q 224 265 206 349 q 298 142 243 181 q 460 103 353 103 z "},"P":{"ha":825,"x_min":108,"x_max":782,"o":"m 108 0 l 108 957 l 461 957 q 642 923 571 957 q 747 819 713 889 q 782 640 782 750 q 747 458 782 532 q 642 347 713 385 q 461 310 571 310 l 242 310 l 242 0 l 108 0 m 242 422 l 460 422 q 602 478 558 422 q 646 640 646 535 q 602 794 646 746 q 460 843 558 843 l 242 843 l 242 422 z "},"Þ":{"ha":833,"x_min":108,"x_max":782,"o":"m 108 0 l 108 963 l 242 963 l 242 814 l 461 814 q 641 780 569 814 q 747 677 713 746 q 782 499 782 608 q 747 313 782 389 q 641 198 713 238 q 461 158 569 158 l 242 158 l 242 0 l 108 0 m 242 282 l 460 282 q 603 340 558 282 q 647 499 647 397 q 603 646 647 600 q 460 692 558 692 l 242 692 l 242 282 z "},"Q":{"ha":918,"x_min":72,"x_max":846,"o":"m 689 -204 l 565 -3 q 517 -11 544 -8 q 458 -14 489 -14 q 224 40 308 -14 q 106 203 140 94 q 72 474 72 313 q 106 745 72 635 q 225 914 140 856 q 458 972 310 972 q 692 915 608 972 q 811 746 776 857 q 846 474 846 635 q 812 201 846 308 q 690 40 778 94 l 807 -149 l 689 -204 m 458 101 q 616 142 563 101 q 689 265 669 182 q 708 474 708 347 q 688 683 708 597 q 615 813 668 768 q 458 857 561 857 q 303 813 357 857 q 228 683 249 768 q 208 474 208 599 q 228 267 208 350 q 301 142 247 183 q 458 101 356 101 z "},"R":{"ha":856,"x_min":108,"x_max":794,"o":"m 108 0 l 108 957 l 469 957 q 646 926 575 957 q 752 831 717 896 q 788 660 788 765 q 747 483 788 556 q 619 382 706 411 l 794 0 l 649 0 l 492 353 l 242 353 l 242 0 l 108 0 m 242 465 l 471 465 q 577 490 538 465 q 633 559 617 515 q 650 658 650 603 q 606 797 650 751 q 469 843 563 843 l 242 843 l 242 465 z "},"S":{"ha":758,"x_min":63,"x_max":699,"o":"m 383 -14 q 281 -8 339 -14 q 168 6 224 -3 q 71 19 113 14 l 82 128 q 177 117 122 124 q 285 107 232 111 q 375 103 338 103 q 481 122 439 103 q 543 178 522 140 q 564 275 564 215 q 545 352 564 324 q 482 398 526 381 q 363 429 438 415 q 229 465 286 444 q 135 515 172 485 q 80 592 97 546 q 63 707 63 639 q 101 863 63 804 q 210 947 139 921 q 378 974 282 974 q 476 969 421 974 q 584 957 531 964 q 676 943 638 950 l 667 833 q 573 844 626 839 q 469 853 519 849 q 389 857 419 857 q 283 842 325 857 q 219 796 240 826 q 197 717 197 765 q 218 632 197 661 q 288 586 239 603 q 415 550 336 569 q 544 514 490 533 q 632 465 597 494 q 683 393 667 436 q 699 285 699 350 q 660 113 699 178 q 551 17 622 47 q 383 -14 481 -14 z "},"T":{"ha":729,"x_min":18,"x_max":713,"o":"m 300 0 l 300 839 l 18 839 l 18 957 l 713 957 l 713 839 l 433 839 l 433 0 l 300 0 z "},"U":{"ha":896,"x_min":101,"x_max":793,"o":"m 444 -14 q 259 17 336 -14 q 142 115 182 47 q 101 297 101 183 l 101 957 l 235 957 l 235 293 q 290 147 235 192 q 444 101 346 101 q 604 147 549 101 q 660 293 660 192 l 660 957 l 793 957 l 793 297 q 753 117 793 186 q 635 17 713 47 q 444 -14 557 -14 z "},"Ú":{"ha":896,"x_min":101,"x_max":793,"o":"m 444 -14 q 259 17 336 -14 q 142 115 182 47 q 101 297 101 183 l 101 957 l 235 957 l 235 293 q 290 147 235 192 q 444 101 346 101 q 604 147 549 101 q 660 293 660 192 l 660 957 l 793 957 l 793 297 q 753 117 793 186 q 635 17 713 47 q 444 -14 557 -14 m 328 1068 l 274 1139 l 551 1282 l 618 1196 l 328 1068 z "},"Û":{"ha":894,"x_min":101,"x_max":793,"o":"m 444 -14 q 259 17 336 -14 q 142 115 182 47 q 101 297 101 183 l 101 957 l 235 957 l 235 293 q 290 147 235 192 q 444 101 346 101 q 604 147 549 101 q 660 293 660 192 l 660 957 l 793 957 l 793 297 q 753 117 793 186 q 635 17 713 47 q 444 -14 557 -14 m 211 1086 l 392 1274 l 499 1274 l 682 1086 l 549 1086 l 447 1193 l 344 1086 l 211 1086 z "},"Ü":{"ha":896,"x_min":101,"x_max":793,"o":"m 444 -14 q 259 17 336 -14 q 142 115 182 47 q 101 297 101 183 l 101 957 l 235 957 l 235 293 q 290 147 235 192 q 444 101 346 101 q 604 147 549 101 q 660 293 660 192 l 660 957 l 793 957 l 793 297 q 753 117 793 186 q 635 17 713 47 q 444 -14 557 -14 m 532 1106 l 532 1242 l 649 1242 l 649 1106 l 532 1106 m 247 1106 l 247 1242 l 364 1242 l 364 1106 l 247 1106 z "},"Ù":{"ha":894,"x_min":101,"x_max":793,"o":"m 444 -14 q 259 17 336 -14 q 142 115 182 47 q 101 297 101 183 l 101 957 l 235 957 l 235 293 q 290 147 235 192 q 444 101 346 101 q 604 147 549 101 q 660 293 660 192 l 660 957 l 793 957 l 793 297 q 753 117 793 186 q 635 17 713 47 q 444 -14 557 -14 m 557 1068 l 267 1197 l 335 1282 l 611 1138 l 557 1068 z "},"V":{"ha":813,"x_min":29,"x_max":783,"o":"m 272 0 l 29 957 l 168 957 l 371 122 l 442 122 l 643 957 l 783 957 l 542 0 l 272 0 z "},"W":{"ha":1238,"x_min":38,"x_max":1199,"o":"m 222 0 l 38 957 l 175 957 l 324 121 l 361 121 l 542 949 l 696 949 l 876 121 l 914 121 l 1061 957 l 1199 957 l 1014 0 l 785 0 l 610 833 l 626 833 l 451 0 l 222 0 z "},"X":{"ha":781,"x_min":21,"x_max":760,"o":"m 21 0 l 307 467 l 21 957 l 169 957 l 392 565 l 619 957 l 760 957 l 475 475 l 758 0 l 610 0 l 389 379 l 163 0 l 21 0 z "},"Y":{"ha":756,"x_min":11,"x_max":746,"o":"m 313 0 l 313 392 l 11 957 l 158 957 l 378 529 l 599 957 l 746 957 l 446 392 l 446 0 l 313 0 z "},"Ý":{"ha":756,"x_min":11,"x_max":746,"o":"m 313 0 l 313 392 l 11 957 l 158 957 l 378 529 l 599 957 l 746 957 l 446 392 l 446 0 l 313 0 m 289 1068 l 235 1139 l 513 1282 l 579 1196 l 289 1068 z "},"Z":{"ha":749,"x_min":56,"x_max":693,"o":"m 56 -1 l 56 138 l 532 813 l 532 840 l 56 840 l 56 957 l 693 957 l 693 815 l 217 143 l 217 115 l 693 115 l 693 -1 l 56 -1 z "},"a":{"ha":706,"x_min":51,"x_max":679,"o":"m 253 -14 q 103 40 154 -14 q 51 200 51 94 q 76 315 51 271 q 151 381 101 358 q 274 407 200 403 l 475 426 l 475 481 q 446 573 475 546 q 358 600 417 600 q 274 597 322 600 q 178 590 225 594 q 93 582 131 586 l 88 676 q 170 692 122 685 q 271 704 218 699 q 368 710 324 710 q 503 686 450 710 q 581 613 556 663 q 606 483 606 563 l 606 142 q 628 101 608 114 q 679 83 649 88 l 675 -12 q 636 -12 656 -12 q 600 -8 617 -11 q 568 -1 583 -6 q 528 15 546 4 q 496 39 511 25 q 431 15 471 28 q 344 -6 390 3 q 253 -14 299 -14 m 279 89 q 351 96 314 89 q 421 112 388 103 q 475 128 454 121 l 475 336 l 290 318 q 207 285 232 314 q 182 204 182 257 q 206 119 182 150 q 279 89 231 89 z "},"á":{"ha":706,"x_min":51,"x_max":679,"o":"m 253 -14 q 103 40 154 -14 q 51 200 51 94 q 76 315 51 271 q 151 381 101 358 q 274 407 200 403 l 475 426 l 475 481 q 446 573 475 546 q 358 600 417 600 q 274 597 322 600 q 178 590 225 594 q 93 582 131 586 l 88 676 q 170 692 122 685 q 271 704 218 699 q 368 710 324 710 q 503 686 450 710 q 581 613 556 663 q 606 483 606 563 l 606 142 q 628 101 608 114 q 679 83 649 88 l 675 -12 q 636 -12 656 -12 q 600 -8 617 -11 q 568 -1 583 -6 q 528 15 546 4 q 496 39 511 25 q 431 15 471 28 q 344 -6 390 3 q 253 -14 299 -14 m 279 89 q 351 96 314 89 q 421 112 388 103 q 475 128 454 121 l 475 336 l 290 318 q 207 285 232 314 q 182 204 182 257 q 206 119 182 150 q 279 89 231 89 m 206 815 l 163 896 l 457 1033 l 511 926 l 206 815 z "},"â":{"ha":706,"x_min":51,"x_max":679,"o":"m 253 -14 q 103 40 154 -14 q 51 200 51 94 q 76 315 51 271 q 151 381 101 358 q 274 407 200 403 l 475 426 l 475 481 q 446 573 475 546 q 358 600 417 600 q 274 597 322 600 q 178 590 225 594 q 93 582 131 586 l 88 676 q 170 692 122 685 q 271 704 218 699 q 368 710 324 710 q 503 686 450 710 q 581 613 556 663 q 606 483 606 563 l 606 142 q 628 101 608 114 q 679 83 649 88 l 675 -12 q 636 -12 656 -12 q 600 -8 617 -11 q 568 -1 583 -6 q 528 15 546 4 q 496 39 511 25 q 431 15 471 28 q 344 -6 390 3 q 253 -14 299 -14 m 279 89 q 351 96 314 89 q 421 112 388 103 q 475 128 454 121 l 475 336 l 290 318 q 207 285 232 314 q 182 204 182 257 q 206 119 182 150 q 279 89 231 89 m 132 815 l 299 1015 l 386 1015 l 557 815 l 438 815 l 344 933 l 253 815 l 132 815 z "},"ä":{"ha":706,"x_min":51,"x_max":679,"o":"m 253 -14 q 103 40 154 -14 q 51 200 51 94 q 76 315 51 271 q 151 381 101 358 q 274 407 200 403 l 475 426 l 475 481 q 446 573 475 546 q 358 600 417 600 q 274 597 322 600 q 178 590 225 594 q 93 582 131 586 l 88 676 q 170 692 122 685 q 271 704 218 699 q 368 710 324 710 q 503 686 450 710 q 581 613 556 663 q 606 483 606 563 l 606 142 q 628 101 608 114 q 679 83 649 88 l 675 -12 q 636 -12 656 -12 q 600 -8 617 -11 q 568 -1 583 -6 q 528 15 546 4 q 496 39 511 25 q 431 15 471 28 q 344 -6 390 3 q 253 -14 299 -14 m 279 89 q 351 96 314 89 q 421 112 388 103 q 475 128 454 121 l 475 336 l 290 318 q 207 285 232 314 q 182 204 182 257 q 206 119 182 150 q 279 89 231 89 m 450 853 l 450 989 l 568 989 l 568 853 l 450 853 m 169 853 l 169 989 l 288 989 l 288 853 l 169 853 z "},"à":{"ha":706,"x_min":51,"x_max":679,"o":"m 253 -14 q 103 40 154 -14 q 51 200 51 94 q 76 315 51 271 q 151 381 101 358 q 274 407 200 403 l 475 426 l 475 481 q 446 573 475 546 q 358 600 417 600 q 274 597 322 600 q 178 590 225 594 q 93 582 131 586 l 88 676 q 170 692 122 685 q 271 704 218 699 q 368 710 324 710 q 503 686 450 710 q 581 613 556 663 q 606 483 606 563 l 606 142 q 628 101 608 114 q 679 83 649 88 l 675 -12 q 636 -12 656 -12 q 600 -8 617 -11 q 568 -1 583 -6 q 528 15 546 4 q 496 39 511 25 q 431 15 471 28 q 344 -6 390 3 q 253 -14 299 -14 m 279 89 q 351 96 314 89 q 421 112 388 103 q 475 128 454 121 l 475 336 l 290 318 q 207 285 232 314 q 182 204 182 257 q 206 119 182 150 q 279 89 231 89 m 468 815 l 163 926 l 219 1033 l 513 896 l 468 815 z "},"å":{"ha":706,"x_min":51,"x_max":679,"o":"m 253 -14 q 103 40 154 -14 q 51 200 51 94 q 76 315 51 271 q 151 381 101 358 q 274 407 200 403 l 475 426 l 475 481 q 446 573 475 546 q 358 600 417 600 q 274 597 322 600 q 178 590 225 594 q 93 582 131 586 l 88 676 q 170 692 122 685 q 271 704 218 699 q 368 710 324 710 q 503 686 450 710 q 581 613 556 663 q 606 483 606 563 l 606 142 q 628 101 608 114 q 679 83 649 88 l 675 -12 q 636 -12 656 -12 q 600 -8 617 -11 q 568 -1 583 -6 q 528 15 546 4 q 496 39 511 25 q 431 15 471 28 q 344 -6 390 3 q 253 -14 299 -14 m 279 89 q 351 96 314 89 q 421 112 388 103 q 475 128 454 121 l 475 336 l 290 318 q 207 285 232 314 q 182 204 182 257 q 206 119 182 150 q 279 89 231 89 m 358 750 q 251 791 294 750 q 208 896 208 832 q 228 969 208 936 q 282 1020 249 1001 q 358 1039 315 1039 q 465 999 422 1039 q 507 896 507 958 q 465 791 507 832 q 358 750 422 750 m 358 822 q 396 832 381 822 q 421 858 411 842 q 431 896 431 875 q 410 946 431 925 q 358 967 389 967 q 322 957 339 967 q 296 931 306 947 q 286 896 286 915 q 308 843 286 864 q 358 822 329 822 z "},"ã":{"ha":706,"x_min":51,"x_max":679,"o":"m 253 -14 q 103 40 154 -14 q 51 200 51 94 q 76 315 51 271 q 151 381 101 358 q 274 407 200 403 l 475 426 l 475 481 q 446 573 475 546 q 358 600 417 600 q 274 597 322 600 q 178 590 225 594 q 93 582 131 586 l 88 676 q 170 692 122 685 q 271 704 218 699 q 368 710 324 710 q 503 686 450 710 q 581 613 556 663 q 606 483 606 563 l 606 142 q 628 101 608 114 q 679 83 649 88 l 675 -12 q 636 -12 656 -12 q 600 -8 617 -11 q 568 -1 583 -6 q 528 15 546 4 q 496 39 511 25 q 431 15 471 28 q 344 -6 390 3 q 253 -14 299 -14 m 279 89 q 351 96 314 89 q 421 112 388 103 q 475 128 454 121 l 475 336 l 290 318 q 207 285 232 314 q 182 204 182 257 q 206 119 182 150 q 279 89 231 89 m 432 839 q 384 849 411 839 q 330 871 357 858 q 278 893 303 883 q 238 903 254 903 q 188 884 219 903 q 135 849 157 865 l 108 926 q 145 959 124 942 q 191 988 167 976 q 238 1000 215 1000 q 287 990 260 1000 q 341 969 314 981 q 392 947 368 957 q 431 938 415 938 q 478 956 447 938 q 529 992 508 974 l 556 913 q 521 879 542 896 q 476 851 500 863 q 432 839 453 839 z "},"æ":{"ha":1115,"x_min":51,"x_max":1060,"o":"m 246 -14 q 101 42 151 -14 q 51 200 51 97 q 79 323 51 281 q 163 385 107 365 q 306 413 219 404 l 475 426 l 475 479 q 446 564 475 538 q 363 590 417 590 q 276 588 325 590 q 178 583 226 586 q 96 576 131 581 l 92 686 q 177 696 128 690 q 278 706 226 701 q 371 710 331 710 q 488 687 442 710 q 558 618 535 664 q 649 688 594 667 q 769 710 703 710 q 987 633 914 710 q 1060 385 1060 556 l 1051 297 l 601 297 q 639 149 601 199 q 771 99 676 99 q 858 101 810 99 q 952 106 906 103 q 1032 111 999 108 l 1035 11 q 953 -1 1001 6 q 852 -10 904 -7 q 756 -14 800 -14 q 633 5 683 -14 q 551 57 583 24 q 456 19 504 36 q 356 -6 407 3 q 246 -14 304 -14 m 271 93 q 338 99 303 93 q 404 112 372 104 q 460 127 436 119 q 494 139 485 135 q 477 227 482 172 q 472 331 472 282 l 289 315 q 208 285 235 311 q 181 204 181 260 q 205 121 181 149 q 271 93 229 93 m 601 393 l 929 393 q 892 553 929 507 q 769 600 854 600 q 644 552 688 600 q 601 393 601 504 z "},"b":{"ha":738,"x_min":92,"x_max":674,"o":"m 339 -14 q 263 -12 307 -14 q 173 -5 218 -10 q 92 3 128 0 l 92 992 l 222 992 l 222 665 q 276 685 244 675 q 346 702 308 694 q 417 710 383 710 q 568 673 511 710 q 649 559 625 636 q 674 358 674 482 q 643 138 674 219 q 540 22 613 57 q 339 -14 468 -14 m 339 99 q 468 126 425 99 q 526 212 511 154 q 542 358 542 269 q 528 495 542 443 q 483 572 515 547 q 396 596 451 596 q 332 590 365 596 q 270 576 299 585 q 222 560 242 568 l 222 106 q 284 101 249 103 q 339 99 319 99 z "},"c":{"ha":610,"x_min":65,"x_max":558,"o":"m 358 -14 q 182 23 246 -14 q 92 142 118 60 q 65 357 65 224 q 94 563 65 486 q 189 675 124 640 q 360 710 254 710 q 420 706 385 710 q 492 697 456 703 q 556 688 529 692 l 551 582 q 496 588 528 585 q 435 592 464 590 q 386 594 406 594 q 270 571 311 594 q 213 496 229 547 q 197 357 197 444 q 212 206 197 263 q 267 126 226 150 q 386 101 307 101 q 435 103 406 101 q 498 108 465 106 q 554 113 531 111 l 558 7 q 494 -2 531 3 q 421 -10 457 -7 q 358 -14 385 -14 z "},"ç":{"ha":610,"x_min":65,"x_max":558,"o":"m 358 -14 q 182 23 246 -14 q 92 142 118 60 q 65 357 65 224 q 94 563 65 486 q 189 675 124 640 q 360 710 254 710 q 420 706 385 710 q 492 697 456 703 q 556 688 529 692 l 551 582 q 496 588 528 585 q 435 592 464 590 q 386 594 406 594 q 270 571 311 594 q 213 496 229 547 q 197 357 197 444 q 212 206 197 263 q 267 126 226 150 q 386 101 307 101 q 435 103 406 101 q 498 108 465 106 q 554 113 531 111 l 558 7 q 494 -2 531 3 q 421 -10 457 -7 q 358 -14 385 -14 m 375 -304 q 303 -301 339 -304 q 249 -294 268 -299 l 253 -222 q 294 -224 264 -224 q 340 -225 324 -225 q 385 -213 369 -225 q 400 -175 400 -201 q 385 -141 400 -150 q 340 -132 369 -132 l 288 -132 l 288 3 l 351 3 l 351 -64 q 440 -74 404 -64 q 492 -107 475 -83 q 510 -176 510 -131 q 473 -274 510 -244 q 375 -304 436 -304 z "},"d":{"ha":742,"x_min":64,"x_max":649,"o":"m 317 -14 q 235 -4 274 -14 q 165 28 196 6 q 110 92 133 51 q 76 194 88 132 q 64 343 64 256 q 93 547 64 465 q 186 669 122 628 q 357 710 250 710 q 413 707 382 710 q 472 700 443 704 q 518 693 501 696 l 518 992 l 649 992 l 649 0 l 521 0 l 519 44 q 465 18 499 32 q 392 -5 431 4 q 317 -14 353 -14 m 340 99 q 407 106 374 99 q 470 125 440 114 q 518 144 500 136 l 518 585 q 476 590 503 588 q 420 596 449 593 q 368 599 392 599 q 265 569 303 599 q 212 483 228 540 q 196 343 196 426 q 207 218 196 265 q 238 144 218 171 q 285 108 258 118 q 340 99 311 99 z "},"ð":{"ha":760,"x_min":53,"x_max":693,"o":"m 367 -12 q 135 66 218 -12 q 53 299 53 144 q 86 457 53 389 q 185 563 119 525 q 346 600 251 600 q 424 592 382 600 q 503 574 465 585 q 567 553 542 564 q 539 667 563 613 q 465 767 515 721 q 331 851 414 813 q 125 918 249 889 l 146 1007 q 446 913 324 976 q 631 744 568 849 q 693 488 693 640 q 660 201 693 311 q 556 39 628 90 q 367 -12 483 -12 m 367 96 q 480 129 436 96 q 545 239 524 163 q 567 446 567 315 q 505 467 542 457 q 429 485 468 478 q 354 492 390 492 q 258 465 297 492 q 199 396 218 439 q 179 299 179 353 q 226 149 179 203 q 367 96 272 96 m 218 708 l 165 782 l 536 1029 l 589 956 l 218 708 z "},"e":{"ha":708,"x_min":63,"x_max":651,"o":"m 349 -14 q 180 26 242 -14 q 90 144 118 65 q 63 343 63 224 q 99 554 63 474 q 203 672 136 635 q 363 710 269 710 q 578 633 506 710 q 651 385 651 556 l 644 297 l 194 297 q 232 147 196 197 q 363 96 268 96 q 451 98 403 96 q 546 103 499 100 q 626 108 593 106 l 629 11 q 546 -1 594 6 q 445 -10 497 -7 q 349 -14 393 -14 m 194 393 l 522 393 q 484 558 522 511 q 363 606 446 606 q 271 585 308 606 q 214 517 233 564 q 194 393 194 471 z "},"é":{"ha":708,"x_min":63,"x_max":651,"o":"m 349 -14 q 180 26 242 -14 q 90 144 118 65 q 63 343 63 224 q 99 554 63 474 q 203 672 136 635 q 363 710 269 710 q 578 633 506 710 q 651 385 651 556 l 644 297 l 194 297 q 232 147 196 197 q 363 96 268 96 q 451 98 403 96 q 546 103 499 100 q 626 108 593 106 l 629 11 q 546 -1 594 6 q 445 -10 497 -7 q 349 -14 393 -14 m 194 393 l 522 393 q 484 558 522 511 q 363 606 446 606 q 271 585 308 606 q 214 517 233 564 q 194 393 194 471 m 244 815 l 201 896 l 496 1033 l 550 926 l 244 815 z "},"ê":{"ha":708,"x_min":63,"x_max":651,"o":"m 349 -14 q 180 26 242 -14 q 90 144 118 65 q 63 343 63 224 q 99 554 63 474 q 203 672 136 635 q 363 710 269 710 q 578 633 506 710 q 651 385 651 556 l 644 297 l 194 297 q 232 147 196 197 q 363 96 268 96 q 451 98 403 96 q 546 103 499 100 q 626 108 593 106 l 629 11 q 546 -1 594 6 q 445 -10 497 -7 q 349 -14 393 -14 m 194 393 l 522 393 q 484 558 522 511 q 363 606 446 606 q 271 585 308 606 q 214 517 233 564 q 194 393 194 471 m 153 815 l 319 1015 l 407 1015 l 578 815 l 458 815 l 365 933 l 274 815 l 153 815 z "},"ë":{"ha":708,"x_min":63,"x_max":651,"o":"m 349 -14 q 180 26 242 -14 q 90 144 118 65 q 63 343 63 224 q 99 554 63 474 q 203 672 136 635 q 363 710 269 710 q 578 633 506 710 q 651 385 651 556 l 644 297 l 194 297 q 232 147 196 197 q 363 96 268 96 q 451 98 403 96 q 546 103 499 100 q 626 108 593 106 l 629 11 q 546 -1 594 6 q 445 -10 497 -7 q 349 -14 393 -14 m 194 393 l 522 393 q 484 558 522 511 q 363 606 446 606 q 271 585 308 606 q 214 517 233 564 q 194 393 194 471 m 468 853 l 468 989 l 586 989 l 586 853 l 468 853 m 188 853 l 188 989 l 306 989 l 306 853 l 188 853 z "},"è":{"ha":708,"x_min":63,"x_max":651,"o":"m 349 -14 q 180 26 242 -14 q 90 144 118 65 q 63 343 63 224 q 99 554 63 474 q 203 672 136 635 q 363 710 269 710 q 578 633 506 710 q 651 385 651 556 l 644 297 l 194 297 q 232 147 196 197 q 363 96 268 96 q 451 98 403 96 q 546 103 499 100 q 626 108 593 106 l 629 11 q 546 -1 594 6 q 445 -10 497 -7 q 349 -14 393 -14 m 194 393 l 522 393 q 484 558 522 511 q 363 606 446 606 q 271 585 308 606 q 214 517 233 564 q 194 393 194 471 m 465 817 l 160 928 l 217 1035 l 510 897 l 465 817 z "},"f":{"ha":465,"x_min":40,"x_max":461,"o":"m 122 0 l 122 586 l 40 586 l 40 696 l 122 696 l 122 750 q 140 906 122 850 q 201 984 158 963 q 315 1006 244 1006 q 363 1004 333 1006 q 421 1001 393 1003 q 461 996 449 999 l 460 892 q 403 893 436 893 q 349 893 369 893 q 290 881 311 893 q 260 838 269 869 q 251 750 251 807 l 251 696 l 443 696 l 443 586 l 251 586 l 251 0 l 122 0 z "},"g":{"ha":722,"x_min":63,"x_max":697,"o":"m 372 -324 q 194 -306 263 -324 q 94 -242 126 -287 q 63 -118 63 -197 q 74 -49 63 -78 q 110 3 86 -21 q 171 54 135 28 q 141 94 151 68 q 131 153 131 121 q 139 182 131 163 q 159 222 147 201 q 181 261 171 243 q 127 299 151 275 q 88 365 103 324 q 72 471 72 407 q 105 610 72 557 q 199 686 138 663 q 340 710 260 710 q 419 704 378 710 q 485 692 461 699 l 697 697 l 697 596 l 574 599 q 603 550 592 581 q 615 471 615 519 q 585 327 615 379 q 492 255 554 275 q 338 235 431 235 q 306 237 328 235 q 274 240 285 239 q 258 199 265 222 q 250 167 250 176 q 256 138 250 149 q 277 120 261 126 q 326 112 293 114 q 418 110 360 110 q 578 92 518 110 q 663 31 638 75 q 688 -96 688 -12 q 604 -270 688 -217 q 372 -324 521 -324 m 371 -219 q 514 -193 468 -219 q 560 -106 560 -167 q 545 -36 560 -58 q 494 -7 531 -14 q 399 0 458 0 q 365 1 386 0 q 320 2 343 1 q 279 4 297 3 q 254 6 261 6 q 213 -30 229 -14 q 191 -63 197 -46 q 185 -104 185 -81 q 201 -172 185 -146 q 258 -208 218 -197 q 371 -219 299 -219 m 340 332 q 455 364 421 332 q 489 471 489 396 q 455 578 489 546 q 340 610 421 610 q 233 578 265 610 q 200 471 200 546 q 233 364 200 396 q 340 332 265 332 z "},"h":{"ha":753,"x_min":93,"x_max":667,"o":"m 93 0 l 93 992 l 222 992 l 222 661 q 281 683 247 672 q 354 701 315 693 q 428 710 393 710 q 547 691 500 710 q 619 631 593 672 q 656 525 646 590 q 667 368 667 460 l 667 0 l 536 0 l 536 360 q 526 497 536 446 q 488 572 517 549 q 401 594 460 594 q 335 589 369 594 q 272 574 301 583 q 222 557 242 565 l 222 0 l 93 0 z "},"i":{"ha":315,"x_min":93,"x_max":222,"o":"m 93 0 l 93 696 l 222 696 l 222 0 l 93 0 m 93 836 l 93 971 l 222 971 l 222 836 l 93 836 z "},"ı":{"ha":331,"x_min":101,"x_max":229,"o":"m 101 0 l 101 696 l 229 696 l 229 0 l 101 0 z "},"í":{"ha":331,"x_min":47,"x_max":397,"o":"m 101 0 l 101 696 l 229 696 l 229 0 l 101 0 m 90 815 l 47 896 l 342 1033 l 396 926 l 90 815 z "},"î":{"ha":315,"x_min":-57,"x_max":367,"o":"m 101 0 l 101 696 l 229 696 l 229 0 l 101 0 m -57 815 l 110 1015 l 197 1015 l 368 815 l 249 815 l 156 933 l 64 815 l -57 815 z "},"ï":{"ha":315,"x_min":-18,"x_max":379,"o":"m 101 0 l 101 696 l 229 696 l 229 0 l 101 0 m 261 853 l 261 989 l 379 989 l 379 853 l 261 853 m -19 853 l -19 989 l 99 989 l 99 853 l -19 853 z "},"ì":{"ha":315,"x_min":-74,"x_max":276,"o":"m 101 0 l 101 696 l 229 696 l 229 0 l 101 0 m 232 815 l -74 926 l -17 1033 l 276 896 l 232 815 z "},"j":{"ha":315,"x_min":-68,"x_max":224,"o":"m -19 -310 l -68 -210 q 15 -158 -17 -181 q 64 -110 47 -135 q 87 -54 81 -86 q 93 26 93 -22 l 93 696 l 224 696 l 224 26 q 213 -90 224 -42 q 175 -175 201 -139 q 101 -242 149 -211 q -19 -310 53 -274 m 93 836 l 93 971 l 224 971 l 224 836 l 93 836 z "},"k":{"ha":679,"x_min":93,"x_max":656,"o":"m 93 0 l 93 992 l 222 992 l 222 417 l 322 421 l 503 696 l 646 696 l 435 372 l 656 0 l 513 0 l 325 307 l 222 303 l 222 0 l 93 0 z "},"l":{"ha":331,"x_min":101,"x_max":229,"o":"m 101 0 l 101 992 l 229 992 l 229 0 l 101 0 z "},"m":{"ha":1165,"x_min":93,"x_max":1078,"o":"m 93 0 l 93 696 l 222 696 l 222 647 q 277 675 244 661 q 347 699 310 689 q 419 710 385 710 q 529 693 488 710 q 597 639 571 676 q 663 671 624 654 q 749 699 703 688 q 839 710 794 710 q 958 691 911 710 q 1031 631 1004 672 q 1067 526 1057 590 q 1078 367 1078 461 l 1078 0 l 950 0 l 950 358 q 940 496 950 444 q 902 571 931 547 q 815 594 874 594 q 748 588 782 594 q 685 569 714 581 q 638 549 656 558 q 651 463 647 515 q 654 357 654 411 l 654 0 l 525 0 l 525 354 q 516 495 525 443 q 478 571 507 547 q 392 594 449 594 q 327 588 360 594 q 267 569 294 581 q 222 549 240 558 l 222 0 l 93 0 z "},"n":{"ha":753,"x_min":93,"x_max":668,"o":"m 93 0 l 93 696 l 222 696 l 222 647 q 279 675 244 661 q 353 699 314 689 q 428 710 392 710 q 547 691 500 710 q 619 631 593 672 q 657 525 646 590 q 668 367 668 460 l 668 0 l 538 0 l 538 360 q 528 497 538 446 q 489 572 518 549 q 401 594 460 594 q 335 588 369 594 q 272 569 301 581 q 222 549 242 558 l 222 0 l 93 0 z "},"ñ":{"ha":753,"x_min":93,"x_max":668,"o":"m 93 0 l 93 696 l 222 696 l 222 647 q 279 675 244 661 q 353 699 314 689 q 428 710 392 710 q 547 691 500 710 q 619 631 593 672 q 657 525 646 590 q 668 367 668 460 l 668 0 l 538 0 l 538 360 q 528 497 538 446 q 489 572 518 549 q 401 594 460 594 q 335 588 369 594 q 272 569 301 581 q 222 549 242 558 l 222 0 l 93 0 m 489 839 q 441 849 468 839 q 387 871 414 858 q 335 893 360 883 q 294 903 311 903 q 245 884 276 903 q 192 849 214 865 l 165 926 q 202 959 181 942 q 248 988 224 976 q 294 1000 272 1000 q 344 990 317 1000 q 398 969 371 981 q 449 947 425 957 q 488 938 472 938 q 535 956 504 938 q 586 992 565 974 l 613 913 q 578 879 599 896 q 533 851 557 863 q 489 839 510 839 z "},"o":{"ha":740,"x_min":64,"x_max":675,"o":"m 369 -14 q 186 26 253 -14 q 92 147 119 65 q 64 356 64 229 q 94 554 64 476 q 191 671 124 632 q 369 710 258 710 q 549 671 482 710 q 645 554 615 632 q 675 356 675 476 q 648 147 675 229 q 554 26 621 65 q 369 -14 488 -14 m 369 96 q 481 122 443 96 q 531 206 518 149 q 543 356 543 264 q 528 499 543 446 q 475 576 513 553 q 369 600 438 600 q 265 576 303 600 q 211 499 226 553 q 196 356 196 446 q 208 206 196 264 q 258 122 221 149 q 369 96 294 96 z "},"ó":{"ha":740,"x_min":64,"x_max":675,"o":"m 369 -14 q 186 26 253 -14 q 92 147 119 65 q 64 356 64 229 q 94 554 64 476 q 191 671 124 632 q 369 710 258 710 q 549 671 482 710 q 645 554 615 632 q 675 356 675 476 q 648 147 675 229 q 554 26 621 65 q 369 -14 488 -14 m 369 96 q 481 122 443 96 q 531 206 518 149 q 543 356 543 264 q 528 499 543 446 q 475 576 513 553 q 369 600 438 600 q 265 576 303 600 q 211 499 226 553 q 196 356 196 446 q 208 206 196 264 q 258 122 221 149 q 369 96 294 96 m 253 815 l 210 896 l 504 1033 l 558 926 l 253 815 z "},"ô":{"ha":740,"x_min":64,"x_max":675,"o":"m 369 -14 q 186 26 253 -14 q 92 147 119 65 q 64 356 64 229 q 94 554 64 476 q 191 671 124 632 q 369 710 258 710 q 549 671 482 710 q 645 554 615 632 q 675 356 675 476 q 648 147 675 229 q 554 26 621 65 q 369 -14 488 -14 m 369 96 q 481 122 443 96 q 531 206 518 149 q 543 356 543 264 q 528 499 543 446 q 475 576 513 553 q 369 600 438 600 q 265 576 303 600 q 211 499 226 553 q 196 356 196 446 q 208 206 196 264 q 258 122 221 149 q 369 96 294 96 m 154 815 l 321 1015 l 408 1015 l 579 815 l 460 815 l 367 933 l 275 815 l 154 815 z "},"ö":{"ha":740,"x_min":64,"x_max":675,"o":"m 369 -14 q 186 26 253 -14 q 92 147 119 65 q 64 356 64 229 q 94 554 64 476 q 191 671 124 632 q 369 710 258 710 q 549 671 482 710 q 645 554 615 632 q 675 356 675 476 q 648 147 675 229 q 554 26 621 65 q 369 -14 488 -14 m 369 96 q 481 122 443 96 q 531 206 518 149 q 543 356 543 264 q 528 499 543 446 q 475 576 513 553 q 369 600 438 600 q 265 576 303 600 q 211 499 226 553 q 196 356 196 446 q 208 206 196 264 q 258 122 221 149 q 369 96 294 96 m 475 853 l 475 989 l 593 989 l 593 853 l 475 853 m 194 853 l 194 989 l 313 989 l 313 853 l 194 853 z "},"ò":{"ha":740,"x_min":64,"x_max":675,"o":"m 369 -14 q 186 26 253 -14 q 92 147 119 65 q 64 356 64 229 q 94 554 64 476 q 191 671 124 632 q 369 710 258 710 q 549 671 482 710 q 645 554 615 632 q 675 356 675 476 q 648 147 675 229 q 554 26 621 65 q 369 -14 488 -14 m 369 96 q 481 122 443 96 q 531 206 518 149 q 543 356 543 264 q 528 499 543 446 q 475 576 513 553 q 369 600 438 600 q 265 576 303 600 q 211 499 226 553 q 196 356 196 446 q 208 206 196 264 q 258 122 221 149 q 369 96 294 96 m 500 815 l 194 926 l 251 1033 l 544 896 l 500 815 z "},"ø":{"ha":740,"x_min":64,"x_max":675,"o":"m 251 -75 l 157 -51 l 517 836 l 614 807 l 251 -75 m 222 -149 l 126 -119 l 490 765 l 585 739 l 222 -149 m 369 -14 q 186 26 253 -14 q 92 147 119 65 q 64 356 64 229 q 94 554 64 476 q 191 671 124 632 q 369 710 258 710 q 549 671 482 710 q 645 554 615 632 q 675 356 675 476 q 648 147 675 229 q 554 26 621 65 q 369 -14 488 -14 m 369 96 q 481 122 443 96 q 531 206 518 149 q 543 356 543 264 q 528 499 543 446 q 475 576 513 553 q 369 600 438 600 q 265 576 303 600 q 211 499 226 553 q 196 356 196 446 q 208 206 196 264 q 258 122 221 149 q 369 96 294 96 z "},"õ":{"ha":740,"x_min":64,"x_max":675,"o":"m 369 -14 q 186 26 253 -14 q 92 147 119 65 q 64 356 64 229 q 94 554 64 476 q 191 671 124 632 q 369 710 258 710 q 549 671 482 710 q 645 554 615 632 q 675 356 675 476 q 648 147 675 229 q 554 26 621 65 q 369 -14 488 -14 m 369 96 q 481 122 443 96 q 531 206 518 149 q 543 356 543 264 q 528 499 543 446 q 475 576 513 553 q 369 600 438 600 q 265 576 303 600 q 211 499 226 553 q 196 356 196 446 q 208 206 196 264 q 258 122 221 149 q 369 96 294 96 m 468 839 q 420 849 447 839 q 366 871 393 858 q 315 893 339 883 q 274 903 290 903 q 224 884 256 903 q 171 849 193 865 l 144 926 q 181 959 160 942 q 227 988 203 976 q 274 1000 251 1000 q 323 990 296 1000 q 377 969 350 981 q 428 947 404 957 q 467 938 451 938 q 514 956 483 938 q 565 992 544 974 l 592 913 q 557 879 578 896 q 513 851 536 863 q 468 839 489 839 z "},"œ":{"ha":1189,"x_min":64,"x_max":1133,"o":"m 371 -14 q 187 26 254 -14 q 92 147 119 65 q 64 356 64 229 q 94 555 64 476 q 192 672 124 633 q 371 710 260 710 q 519 678 460 710 q 611 575 579 647 q 707 680 647 650 q 842 710 767 710 q 1060 633 988 710 q 1133 385 1133 556 l 1125 297 l 675 297 q 713 149 675 199 q 844 99 750 99 q 931 101 882 99 q 1026 106 979 103 q 1106 111 1072 108 l 1108 11 q 1026 -1 1075 6 q 925 -10 976 -7 q 829 -14 874 -14 q 690 15 744 -14 q 607 104 636 43 q 519 14 575 42 q 371 -14 463 -14 m 371 99 q 481 126 444 99 q 531 211 518 154 q 543 354 543 268 q 503 539 543 483 q 371 594 463 594 q 266 572 304 594 q 212 497 228 549 q 196 356 196 444 q 209 209 196 265 q 260 126 222 153 q 371 99 297 99 m 674 393 l 1003 393 q 965 553 1003 507 q 842 600 926 600 q 717 552 761 600 q 674 393 674 504 z "},"p":{"ha":739,"x_min":93,"x_max":676,"o":"m 93 -303 l 93 696 l 222 696 l 222 647 q 276 674 243 660 q 347 699 310 689 q 419 710 385 710 q 566 672 510 710 q 649 556 622 635 q 676 354 676 478 q 645 138 676 219 q 547 22 614 57 q 372 -14 479 -14 q 288 -8 331 -14 q 222 1 246 -3 l 222 -303 l 93 -303 m 360 97 q 470 124 429 97 q 528 207 511 150 q 544 356 544 264 q 506 542 544 489 q 396 596 467 596 q 333 588 365 596 q 271 570 300 581 q 222 547 242 560 l 222 110 q 283 102 243 107 q 360 97 322 97 z "},"þ":{"ha":739,"x_min":93,"x_max":675,"o":"m 93 -303 l 93 994 l 222 994 l 222 665 q 278 685 246 675 q 347 702 310 694 q 417 710 385 710 q 569 674 513 710 q 651 560 626 638 q 675 357 675 482 q 646 140 675 221 q 547 22 617 58 q 360 -14 478 -14 q 289 -10 329 -14 q 222 -4 249 -7 l 222 -303 l 93 -303 m 346 97 q 472 126 429 97 q 528 212 514 154 q 543 357 543 269 q 530 495 543 443 q 485 572 517 547 q 397 596 453 596 q 333 590 367 596 q 271 576 300 585 q 222 560 242 568 l 222 104 q 286 99 249 101 q 346 97 324 97 z "},"q":{"ha":739,"x_min":64,"x_max":644,"o":"m 515 -303 l 515 29 q 431 1 485 17 q 326 -14 378 -14 q 174 23 232 -14 q 90 138 115 60 q 64 336 64 217 q 96 557 64 475 q 201 674 128 639 q 397 710 275 710 q 470 708 426 710 q 561 701 514 706 q 644 694 608 697 l 644 -303 l 515 -303 m 347 99 q 442 111 396 99 q 515 135 489 124 l 515 592 q 456 597 490 594 q 399 599 421 599 q 272 570 317 599 q 211 484 228 542 q 194 338 194 426 q 230 157 194 215 q 347 99 265 99 z "},"r":{"ha":485,"x_min":93,"x_max":464,"o":"m 93 0 l 93 696 l 222 696 l 222 606 q 286 644 247 624 q 372 684 325 665 q 464 711 418 703 l 464 582 q 373 558 419 574 q 287 526 326 543 q 222 494 247 508 l 222 0 l 93 0 z "},"s":{"ha":650,"x_min":58,"x_max":594,"o":"m 319 -14 q 237 -10 283 -14 q 145 1 190 -6 q 67 14 100 7 l 72 118 q 151 108 107 114 q 238 99 196 103 q 306 96 281 96 q 393 106 358 96 q 446 138 428 115 q 464 201 464 161 q 450 251 464 233 q 399 280 436 268 q 289 303 361 292 q 160 334 211 315 q 83 392 108 353 q 58 500 58 431 q 95 626 58 581 q 191 690 132 671 q 315 710 250 710 q 405 706 357 710 q 497 694 453 701 q 574 682 542 688 l 569 576 q 492 587 536 582 q 403 594 447 592 q 325 597 358 597 q 255 590 286 597 q 206 562 224 582 q 189 504 189 542 q 201 460 189 476 q 251 431 214 443 q 358 408 289 419 q 496 374 444 394 q 571 314 547 353 q 594 207 594 275 q 562 76 594 125 q 468 7 529 28 q 319 -14 407 -14 z "},"ß":{"ha":818,"x_min":93,"x_max":774,"o":"m 497 -14 q 431 -10 467 -14 q 360 -2 394 -7 q 303 8 326 3 l 307 110 q 365 103 332 107 q 428 98 397 100 q 479 96 460 96 q 608 131 574 96 q 642 229 642 165 q 630 287 642 264 q 586 331 618 310 q 493 379 554 351 q 403 429 436 407 q 358 478 371 451 q 344 543 344 506 q 356 602 344 578 q 390 644 367 626 q 449 678 414 663 q 502 710 483 694 q 528 744 521 725 q 535 789 535 764 q 502 869 535 846 q 383 892 469 892 q 290 878 326 892 q 238 830 254 864 q 222 732 222 796 l 222 0 l 93 0 l 93 742 q 110 867 93 817 q 161 949 126 918 q 251 992 196 979 q 383 1006 307 1006 q 547 985 485 1006 q 639 919 610 964 q 668 801 668 875 q 656 720 668 753 q 620 667 644 688 q 557 626 596 646 q 506 601 524 611 q 481 581 488 590 q 474 558 474 571 q 483 533 474 544 q 519 506 493 521 q 596 467 546 490 q 700 406 661 435 q 756 340 739 378 q 774 246 774 303 q 746 94 774 151 q 658 12 718 38 q 497 -14 599 -14 z "},"t":{"ha":490,"x_min":33,"x_max":472,"o":"m 326 -15 q 209 7 253 -15 q 147 84 165 29 q 128 239 128 139 l 128 586 l 33 586 l 33 696 l 128 696 l 128 900 l 256 900 l 256 696 l 463 696 l 463 586 l 256 586 l 256 275 q 262 169 256 207 q 288 115 268 131 q 349 100 307 100 q 383 101 363 100 q 426 103 404 101 q 465 107 449 106 l 472 1 q 424 -6 451 -3 q 371 -12 397 -10 q 326 -15 344 -15 z "},"u":{"ha":746,"x_min":86,"x_max":651,"o":"m 308 -14 q 170 23 218 -14 q 104 136 122 60 q 86 333 86 213 l 86 696 l 215 696 l 215 335 q 224 197 215 249 q 260 124 232 146 q 346 101 289 101 q 448 117 401 101 q 524 146 494 132 l 524 696 l 651 696 l 651 0 l 524 0 l 524 47 q 428 4 479 22 q 308 -14 378 -14 z "},"ú":{"ha":746,"x_min":86,"x_max":651,"o":"m 308 -14 q 170 23 218 -14 q 104 136 122 60 q 86 333 86 213 l 86 696 l 215 696 l 215 335 q 224 197 215 249 q 260 124 232 146 q 346 101 289 101 q 448 117 401 101 q 524 146 494 132 l 524 696 l 651 696 l 651 0 l 524 0 l 524 47 q 428 4 479 22 q 308 -14 378 -14 m 258 815 l 215 896 l 510 1033 l 564 926 l 258 815 z "},"û":{"ha":746,"x_min":86,"x_max":651,"o":"m 308 -14 q 170 23 218 -14 q 104 136 122 60 q 86 333 86 213 l 86 696 l 215 696 l 215 335 q 224 197 215 249 q 260 124 232 146 q 346 101 289 101 q 448 117 401 101 q 524 146 494 132 l 524 696 l 651 696 l 651 0 l 524 0 l 524 47 q 428 4 479 22 q 308 -14 378 -14 m 146 815 l 313 1015 l 400 1015 l 571 815 l 451 815 l 358 933 l 267 815 l 146 815 z "},"ü":{"ha":746,"x_min":86,"x_max":651,"o":"m 308 -14 q 170 23 218 -14 q 104 136 122 60 q 86 333 86 213 l 86 696 l 215 696 l 215 335 q 224 197 215 249 q 260 124 232 146 q 346 101 289 101 q 448 117 401 101 q 524 146 494 132 l 524 696 l 651 696 l 651 0 l 524 0 l 524 47 q 428 4 479 22 q 308 -14 378 -14 m 485 853 l 485 989 l 603 989 l 603 853 l 485 853 m 204 853 l 204 989 l 322 989 l 322 853 l 204 853 z "},"ù":{"ha":746,"x_min":86,"x_max":651,"o":"m 308 -14 q 170 23 218 -14 q 104 136 122 60 q 86 333 86 213 l 86 696 l 215 696 l 215 335 q 224 197 215 249 q 260 124 232 146 q 346 101 289 101 q 448 117 401 101 q 524 146 494 132 l 524 696 l 651 696 l 651 0 l 524 0 l 524 47 q 428 4 479 22 q 308 -14 378 -14 m 458 815 l 153 926 l 210 1033 l 503 896 l 458 815 z "},"v":{"ha":679,"x_min":31,"x_max":649,"o":"m 217 0 l 31 696 l 169 696 l 317 111 l 365 111 l 517 696 l 649 696 l 463 0 l 217 0 z "},"w":{"ha":1064,"x_min":40,"x_max":1024,"o":"m 196 0 l 40 696 l 174 696 l 296 111 l 319 111 l 468 681 l 599 681 l 749 111 l 771 111 l 894 696 l 1024 696 l 869 0 l 663 0 l 531 513 l 400 0 l 196 0 z "},"x":{"ha":642,"x_min":28,"x_max":614,"o":"m 28 0 l 235 347 l 28 696 l 168 696 l 322 433 l 476 696 l 614 696 l 407 350 l 614 0 l 474 0 l 318 258 l 165 0 l 28 0 z "},"y":{"ha":682,"x_min":31,"x_max":651,"o":"m 246 -303 l 335 0 l 219 0 l 31 696 l 163 696 l 319 111 l 364 111 l 522 696 l 651 696 l 378 -303 l 246 -303 z "},"ý":{"ha":682,"x_min":31,"x_max":651,"o":"m 246 -303 l 335 0 l 219 0 l 31 696 l 163 696 l 319 111 l 364 111 l 522 696 l 651 696 l 378 -303 l 246 -303 m 251 815 l 208 896 l 503 1033 l 557 926 l 251 815 z "},"ÿ":{"ha":682,"x_min":31,"x_max":651,"o":"m 246 -303 l 335 0 l 219 0 l 31 696 l 163 696 l 319 111 l 364 111 l 522 696 l 651 696 l 378 -303 l 246 -303 m 449 853 l 449 989 l 567 989 l 567 853 l 449 853 m 168 853 l 168 989 l 286 989 l 286 853 l 168 853 z "},"z":{"ha":639,"x_min":56,"x_max":583,"o":"m 56 0 l 56 114 l 421 579 l 56 579 l 56 696 l 583 696 l 583 583 l 217 115 l 583 115 l 583 0 l 56 0 z "},"ª":{"ha":533,"x_min":68,"x_max":464,"o":"m 458 496 q 391 506 419 499 q 345 526 363 513 q 324 567 328 540 l 324 779 q 308 821 324 810 q 256 831 292 832 q 182 827 229 831 q 97 821 135 824 l 92 893 q 178 910 132 903 q 268 917 225 917 q 386 885 347 917 q 425 775 425 854 l 425 593 q 443 580 432 585 q 464 572 454 575 l 458 496 m 186 497 q 101 532 133 497 q 68 624 68 567 q 102 712 68 682 q 206 746 136 742 l 350 754 l 351 686 l 224 676 q 184 664 196 675 q 172 628 172 653 q 184 590 172 603 q 218 576 196 576 q 289 587 250 576 q 356 607 328 597 l 356 549 q 278 512 324 526 q 186 497 232 497 z "},"º":{"ha":526,"x_min":68,"x_max":458,"o":"m 264 497 q 117 548 167 497 q 68 708 68 599 q 117 867 68 817 q 264 917 167 917 q 410 867 361 917 q 458 708 458 817 q 410 548 458 599 q 264 497 361 497 m 264 589 q 331 617 313 589 q 350 708 350 646 q 331 797 350 771 q 264 824 313 824 q 196 797 217 824 q 175 708 175 771 q 196 617 175 646 q 264 589 217 589 z "},"⁄":{"ha":36,"x_min":-294,"x_max":308,"o":"m -224 -6 l -294 36 l 236 931 l 308 889 l -224 -6 z "},"½":{"ha":835,"x_min":40,"x_max":776,"o":"m 179 633 l 179 964 l 85 903 l 40 981 l 188 1079 l 285 1079 l 285 633 l 179 633 m 175 -6 l 104 36 l 635 931 l 707 889 l 175 -6 m 479 -157 l 479 -71 l 600 50 q 652 106 633 81 q 671 161 671 131 q 653 197 671 186 q 604 208 635 208 q 546 205 581 208 q 488 197 511 201 l 482 286 q 553 297 510 292 q 629 303 596 303 q 741 270 707 303 q 775 171 775 238 q 765 112 775 138 q 735 63 756 86 q 685 11 715 39 l 606 -65 l 778 -65 l 778 -157 l 479 -157 z "},"¼":{"ha":835,"x_min":40,"x_max":771,"o":"m 179 633 l 179 964 l 85 903 l 40 981 l 188 1079 l 285 1079 l 285 633 l 179 633 m 175 -6 l 104 36 l 635 931 l 707 889 l 175 -6 m 635 -157 l 635 -90 l 438 -90 l 438 -7 l 528 289 l 642 289 l 542 0 l 635 0 l 643 119 l 738 121 l 738 0 l 772 0 l 772 -90 l 738 -90 l 738 -157 l 635 -157 z "},"¾":{"ha":835,"x_min":42,"x_max":771,"o":"m 197 621 q 117 626 164 621 q 42 636 71 632 l 47 724 q 115 716 74 719 q 179 713 156 713 q 235 724 218 713 q 253 767 253 736 q 236 808 253 796 q 192 819 219 819 l 97 819 l 97 903 l 190 903 q 225 919 210 903 q 240 960 240 935 q 224 992 240 983 q 174 1001 208 1001 q 112 998 149 1001 q 53 992 75 994 l 47 1079 q 119 1088 78 1085 q 192 1092 160 1092 q 309 1063 271 1092 q 347 972 347 1035 q 331 905 347 929 q 293 869 315 881 q 340 836 325 858 q 356 765 356 814 q 317 656 356 690 q 197 621 278 621 m 175 -6 l 104 36 l 635 931 l 707 889 l 175 -6 m 635 -157 l 635 -90 l 438 -90 l 438 -7 l 528 289 l 642 289 l 542 0 l 635 0 l 643 119 l 738 121 l 738 0 l 772 0 l 772 -90 l 738 -90 l 738 -157 l 635 -157 z "},"¹":{"ha":399,"x_min":40,"x_max":285,"o":"m 179 633 l 179 964 l 85 903 l 40 981 l 188 1079 l 285 1079 l 285 633 l 179 633 z "},"²":{"ha":399,"x_min":43,"x_max":342,"o":"m 43 633 l 43 719 l 164 840 q 216 896 197 871 q 235 951 235 921 q 217 988 235 976 q 168 999 199 999 q 110 995 144 999 q 51 988 75 992 l 46 1076 q 117 1088 74 1082 q 193 1093 160 1093 q 305 1060 271 1093 q 339 961 339 1028 q 329 902 339 928 q 299 853 319 876 q 249 801 279 829 l 169 725 l 342 725 l 342 633 l 43 633 z "},"³":{"ha":399,"x_min":42,"x_max":356,"o":"m 197 621 q 117 626 164 621 q 42 636 71 632 l 47 724 q 115 716 74 719 q 179 713 156 713 q 235 724 218 713 q 253 767 253 736 q 236 808 253 796 q 192 819 219 819 l 97 819 l 97 903 l 190 903 q 225 919 210 903 q 240 960 240 935 q 224 992 240 983 q 174 1001 208 1001 q 112 998 149 1001 q 53 992 75 994 l 47 1079 q 119 1088 78 1085 q 192 1092 160 1092 q 309 1063 271 1092 q 347 972 347 1035 q 331 905 347 929 q 293 869 315 881 q 340 836 325 858 q 356 765 356 814 q 317 656 356 690 q 197 621 278 621 z "},"⁴":{"ha":399,"x_min":32,"x_max":367,"o":"m 229 633 l 229 700 l 32 700 l 32 783 l 122 1079 l 236 1079 l 136 790 l 229 790 l 238 910 l 332 911 l 332 790 l 367 790 l 367 700 l 332 700 l 332 633 l 229 633 z "}," ":{"ha":304,"x_min":0,"x_max":0,"o":""}," ":{"ha":304,"x_min":0,"x_max":0,"o":""},".":{"ha":313,"x_min":88,"x_max":226,"o":"m 88 0 l 88 175 l 226 175 l 226 0 l 88 0 z "},",":{"ha":322,"x_min":44,"x_max":247,"o":"m 44 -168 l 103 164 l 247 164 l 151 -168 l 44 -168 z "},":":{"ha":314,"x_min":88,"x_max":226,"o":"m 88 436 l 88 611 l 226 611 l 226 436 l 88 436 m 88 0 l 88 175 l 226 175 l 226 0 l 88 0 z "},";":{"ha":354,"x_min":60,"x_max":264,"o":"m 60 -168 l 119 164 l 264 164 l 167 -168 l 60 -168 m 114 436 l 114 611 l 251 611 l 251 436 l 114 436 z "},"…":{"ha":1032,"x_min":88,"x_max":946,"o":"m 807 0 l 807 175 l 946 175 l 946 0 l 807 0 m 88 0 l 88 175 l 226 175 l 226 0 l 88 0 m 446 0 l 446 175 l 585 175 l 585 0 l 446 0 z "},"!":{"ha":351,"x_min":107,"x_max":246,"o":"m 117 321 l 107 957 l 246 957 l 236 321 l 117 321 m 107 0 l 107 172 l 246 172 l 246 0 l 107 0 z "},"¡":{"ha":328,"x_min":94,"x_max":233,"o":"m 224 374 l 233 -261 l 94 -261 l 104 374 l 224 374 m 233 696 l 233 524 l 94 524 l 94 696 l 233 696 z "},"?":{"ha":624,"x_min":47,"x_max":571,"o":"m 215 283 q 202 321 210 297 q 194 371 194 344 q 210 434 194 404 q 256 492 226 464 q 322 553 285 521 q 395 622 369 594 q 430 674 421 649 q 439 736 439 700 q 398 832 439 803 q 268 861 357 861 q 201 856 240 861 q 123 844 161 851 q 56 831 85 836 l 47 931 q 121 951 78 942 q 208 968 164 961 q 288 975 253 975 q 445 952 382 975 q 540 878 508 929 q 571 744 571 828 q 561 644 571 683 q 524 572 551 606 q 443 493 496 538 q 352 408 382 443 q 322 329 322 372 l 322 283 l 215 283 m 199 1 l 199 171 l 336 171 l 336 1 l 199 1 z "},"¿":{"ha":617,"x_min":49,"x_max":572,"o":"m 404 414 q 418 377 411 400 q 425 325 425 354 q 409 263 425 292 q 365 204 393 233 q 297 143 336 175 q 224 75 250 101 q 190 23 199 49 q 181 -40 181 -3 q 222 -135 181 -107 q 351 -164 263 -164 q 420 -159 382 -164 q 497 -147 458 -154 q 564 -133 535 -140 l 572 -235 q 499 -254 542 -244 q 412 -272 456 -264 q 332 -279 368 -279 q 174 -256 238 -279 q 80 -183 111 -233 q 49 -49 49 -132 q 58 52 49 13 q 96 126 68 92 q 176 203 124 160 q 267 289 238 253 q 297 368 297 325 l 297 414 l 404 414 m 421 696 l 421 526 l 283 526 l 283 696 l 421 696 z "},"·":{"ha":314,"x_min":89,"x_max":228,"o":"m 89 306 l 89 481 l 228 481 l 228 306 l 89 306 z "},"•":{"ha":642,"x_min":146,"x_max":496,"o":"m 146 153 l 146 546 l 496 546 l 496 153 l 146 153 z "},"*":{"ha":582,"x_min":69,"x_max":522,"o":"m 319 510 l 264 681 l 119 572 l 69 639 l 215 746 l 72 849 l 122 918 l 265 811 l 319 983 l 400 956 l 346 785 l 522 786 l 522 703 l 344 704 l 400 535 l 319 510 z "},"#":{"ha":776,"x_min":31,"x_max":746,"o":"m 175 0 l 175 231 l 31 231 l 32 339 l 176 339 l 176 579 l 32 579 l 32 686 l 176 686 l 178 925 l 290 925 l 290 686 l 488 686 l 488 925 l 601 925 l 600 686 l 746 686 l 744 579 l 600 579 l 600 339 l 744 339 l 744 231 l 599 231 l 599 0 l 486 0 l 486 231 l 288 231 l 288 0 l 175 0 m 289 339 l 486 339 l 488 579 l 289 579 l 289 339 z "},"/":{"ha":596,"x_min":42,"x_max":556,"o":"m 161 -29 l 42 8 l 436 986 l 556 947 l 161 -29 z "},"\\":{"ha":626,"x_min":39,"x_max":586,"o":"m 468 -31 l 39 940 l 157 983 l 586 13 l 468 -31 z "},"-":{"ha":594,"x_min":88,"x_max":507,"o":"m 88 321 l 88 436 l 507 436 l 507 321 l 88 321 z "},"­":{"ha":594,"x_min":88,"x_max":507,"o":"m 88 321 l 88 436 l 507 436 l 507 321 l 88 321 z "},"–":{"ha":865,"x_min":86,"x_max":781,"o":"m 86 313 l 86 426 l 781 426 l 781 313 l 86 313 z "},"—":{"ha":1560,"x_min":86,"x_max":1475,"o":"m 86 313 l 86 426 l 1475 426 l 1475 313 l 86 313 z "},"_":{"ha":872,"x_min":132,"x_max":740,"o":"m 132 -225 l 132 -122 l 740 -122 l 740 -225 l 132 -225 z "},"(":{"ha":378,"x_min":64,"x_max":332,"o":"m 210 -174 q 160 -62 186 -128 q 113 84 135 4 q 78 249 92 164 q 64 418 64 335 q 78 590 64 501 q 113 763 92 679 q 160 919 135 847 q 210 1042 186 992 l 332 1042 q 289 909 313 985 q 247 748 265 833 q 215 578 228 663 q 203 418 203 493 q 215 263 203 344 q 247 100 228 181 q 289 -51 265 19 q 332 -174 313 -121 l 210 -174 z "},")":{"ha":378,"x_min":46,"x_max":314,"o":"m 169 -172 l 46 -172 q 90 -49 67 -121 q 131 103 113 22 q 163 266 150 183 q 175 422 175 349 q 163 582 175 497 q 131 751 150 667 q 90 911 113 836 q 46 1043 67 986 l 169 1043 q 217 922 192 993 q 265 767 243 850 q 300 594 286 683 q 314 422 314 506 q 300 253 314 339 q 265 87 286 167 q 217 -60 243 7 q 169 -172 192 -126 z "},"{":{"ha":490,"x_min":31,"x_max":439,"o":"m 436 -179 q 311 -162 364 -176 q 225 -119 258 -147 q 176 -45 192 -90 q 161 64 161 0 q 163 115 161 88 q 167 168 165 142 q 170 208 169 189 q 171 238 171 226 q 138 326 171 292 q 31 382 104 361 l 31 485 q 138 536 106 503 q 171 625 171 569 q 169 660 171 639 q 167 703 168 681 q 163 758 165 731 q 161 806 161 785 q 176 917 161 871 q 226 991 192 963 q 313 1033 260 1019 q 438 1050 365 1047 l 439 940 q 347 919 379 938 q 301 869 314 901 q 289 790 289 836 q 290 749 289 772 q 293 703 292 726 q 296 661 294 682 q 297 625 297 640 q 285 532 297 568 q 244 474 274 496 q 158 435 214 451 q 244 395 214 418 q 285 335 274 372 q 297 242 297 299 q 296 210 297 228 q 293 175 294 193 q 290 128 292 151 q 289 83 289 106 q 301 6 289 39 q 345 -47 313 -28 q 438 -69 378 -65 l 436 -179 z "},"}":{"ha":490,"x_min":50,"x_max":460,"o":"m 53 -179 l 51 -69 q 146 -47 114 -65 q 190 5 178 -28 q 201 82 201 38 q 200 127 201 104 q 196 174 199 150 q 193 208 194 190 q 192 239 192 225 q 204 333 192 296 q 247 392 217 369 q 331 432 276 415 q 247 471 276 449 q 204 529 217 493 q 192 622 192 565 q 193 658 192 638 q 196 701 194 679 q 200 748 199 725 q 201 789 201 771 q 189 867 201 835 q 144 918 176 900 q 50 939 113 936 l 51 1049 q 178 1032 125 1046 q 265 990 231 1018 q 314 916 299 961 q 329 806 329 871 q 328 757 329 785 q 324 703 326 729 q 320 659 322 679 q 318 625 318 639 q 351 535 318 569 q 460 483 383 501 l 460 381 q 351 326 385 360 q 318 238 318 292 q 320 208 318 226 q 324 167 322 189 q 328 115 326 142 q 329 64 329 88 q 314 -46 329 -1 q 265 -119 299 -90 q 179 -162 232 -149 q 53 -179 126 -176 z "},"[":{"ha":460,"x_min":101,"x_max":407,"o":"m 101 -171 l 101 1040 l 407 1040 l 407 926 l 233 926 l 233 -57 l 407 -57 l 407 -171 l 101 -171 z "},"]":{"ha":460,"x_min":53,"x_max":358,"o":"m 358 -171 l 53 -171 l 53 -57 l 226 -57 l 226 926 l 53 926 l 53 1040 l 358 1040 l 358 -171 z "},"‚":{"ha":315,"x_min":46,"x_max":267,"o":"m 267 213 l 201 -153 l 46 -153 l 151 213 l 267 213 z "},"„":{"ha":529,"x_min":63,"x_max":414,"o":"m 183 124 l 133 -110 l 63 -110 l 133 124 l 183 124 m 414 124 l 364 -110 l 294 -110 l 364 124 l 414 124 z "},"“":{"ha":547,"x_min":64,"x_max":488,"o":"m 488 975 l 432 660 l 294 660 l 386 975 l 488 975 m 257 975 l 200 660 l 64 660 l 156 975 l 257 975 z "},"”":{"ha":551,"x_min":68,"x_max":503,"o":"m 68 663 l 125 978 l 263 978 l 171 663 l 68 663 m 308 663 l 365 978 l 503 978 l 410 663 l 308 663 z "},"‘":{"ha":315,"x_min":64,"x_max":257,"o":"m 257 975 l 200 660 l 64 660 l 156 975 l 257 975 z "},"’":{"ha":311,"x_min":68,"x_max":263,"o":"m 68 661 l 125 976 l 263 976 l 171 661 l 68 661 z "},"«":{"ha":765,"x_min":58,"x_max":679,"o":"m 656 82 l 394 304 l 394 385 l 656 599 l 679 486 l 510 347 l 679 193 l 656 82 m 318 82 l 58 304 l 58 385 l 319 599 l 342 486 l 171 347 l 342 193 l 318 82 z "},"»":{"ha":767,"x_min":85,"x_max":707,"o":"m 446 82 l 422 193 l 593 347 l 422 486 l 446 599 l 707 386 l 707 306 l 446 82 m 108 82 l 85 193 l 256 347 l 85 486 l 108 599 l 371 386 l 371 306 l 108 82 z "},"‹":{"ha":426,"x_min":58,"x_max":342,"o":"m 318 83 l 58 306 l 58 386 l 319 599 l 342 488 l 171 349 l 342 194 l 318 83 z "},"›":{"ha":426,"x_min":85,"x_max":369,"o":"m 108 86 l 85 199 l 256 351 l 85 492 l 108 603 l 369 390 l 369 310 l 108 86 z "},"\"":{"ha":546,"x_min":83,"x_max":463,"o":"m 339 643 l 331 957 l 463 957 l 451 643 l 339 643 m 93 643 l 83 957 l 215 957 l 206 643 l 93 643 z "},"'":{"ha":299,"x_min":83,"x_max":217,"o":"m 92 643 l 83 957 l 217 957 l 206 643 l 92 643 z "},"@":{"ha":1363,"x_min":67,"x_max":1307,"o":"m 701 -285 q 424 -253 543 -285 q 225 -148 304 -222 q 106 51 146 -74 q 67 363 67 176 q 109 658 67 535 q 233 857 151 781 q 433 969 315 933 q 703 1006 551 1006 q 1047 942 914 1006 q 1244 750 1181 879 q 1307 425 1307 621 l 1307 407 q 1296 228 1307 301 q 1264 110 1285 156 q 1213 38 1243 64 q 1142 3 1182 13 q 1054 -7 1101 -7 q 967 6 1003 -7 q 911 38 932 19 q 882 75 890 57 q 813 39 854 58 q 728 7 772 19 q 646 -6 685 -6 q 569 2 607 -6 q 501 31 532 10 q 446 92 469 53 q 409 192 422 131 q 396 342 396 253 q 421 540 396 460 q 507 660 446 619 q 674 701 568 701 q 758 689 711 701 q 832 664 804 676 l 832 688 l 963 688 l 963 422 q 965 248 963 313 q 977 151 968 183 q 1007 109 986 119 q 1061 99 1028 99 q 1113 108 1090 99 q 1152 148 1136 118 q 1176 240 1168 178 q 1185 407 1185 303 l 1185 426 q 1158 640 1185 551 q 1073 786 1131 729 q 924 870 1015 843 q 703 897 833 897 q 477 867 574 897 q 315 773 381 838 q 218 608 250 708 q 186 363 186 507 q 216 107 186 210 q 308 -59 246 4 q 469 -149 371 -122 q 701 -176 567 -176 q 759 -174 724 -176 q 833 -169 794 -172 q 900 -164 871 -167 l 904 -272 q 839 -278 876 -275 q 765 -283 801 -281 q 701 -285 728 -285 m 658 106 q 719 115 685 106 q 786 137 753 124 q 844 163 819 150 q 838 228 842 192 q 833 306 835 265 q 832 386 832 347 l 832 564 q 770 581 808 572 q 703 589 732 589 q 592 562 631 589 q 540 479 554 535 q 525 342 525 424 q 537 221 525 267 q 567 149 549 175 q 610 115 586 124 q 658 106 633 106 z "},"&":{"ha":958,"x_min":53,"x_max":936,"o":"m 401 -14 q 194 21 269 -14 q 85 121 118 56 q 53 281 53 186 q 75 415 53 361 q 144 501 97 468 q 260 558 190 535 q 211 628 228 597 q 190 691 194 660 q 185 763 185 722 q 214 873 185 826 q 300 946 243 919 q 439 972 357 972 q 580 947 524 972 q 665 874 636 922 q 693 756 693 825 q 681 669 693 706 q 644 603 669 632 q 579 548 619 574 q 482 496 539 522 l 675 306 q 690 364 682 326 q 705 441 699 401 q 713 511 711 481 l 832 508 q 817 408 828 461 q 794 307 807 354 q 767 228 782 260 l 936 69 l 872 -12 l 701 133 q 576 24 653 61 q 401 -14 500 -14 m 396 99 q 522 126 467 99 q 608 210 576 153 l 333 481 q 247 440 281 464 q 199 381 214 417 q 183 292 183 346 q 233 149 183 199 q 396 99 282 99 m 408 569 q 498 617 464 593 q 547 673 532 642 q 563 749 563 704 q 533 837 563 807 q 439 867 504 867 q 347 838 379 867 q 314 746 314 808 q 317 703 314 722 q 330 665 321 685 q 358 624 339 646 q 408 569 378 601 z "},"¶":{"ha":821,"x_min":46,"x_max":767,"o":"m 321 0 l 321 431 l 311 431 q 176 465 236 431 q 81 558 115 499 q 46 696 46 618 q 81 833 46 774 q 176 927 117 893 q 313 961 236 961 l 767 961 l 767 849 l 668 849 l 668 0 l 575 0 l 569 774 l 422 774 l 415 0 l 321 0 z "},"§":{"ha":708,"x_min":67,"x_max":636,"o":"m 350 -218 q 267 -212 315 -218 q 173 -201 219 -207 q 93 -189 126 -194 l 104 -85 q 145 -90 121 -87 q 197 -96 169 -93 q 250 -101 224 -99 q 300 -105 276 -103 q 342 -107 324 -107 q 459 -77 418 -107 q 500 17 500 -47 q 480 78 500 58 q 417 111 460 99 q 304 138 374 124 q 171 175 224 153 q 92 238 118 197 q 67 347 67 279 q 92 447 67 399 q 146 521 118 496 q 113 558 126 538 q 93 607 100 578 q 86 675 86 636 q 119 807 86 756 q 215 883 153 858 q 363 907 276 907 q 443 902 399 907 q 531 891 488 897 q 607 879 575 885 l 601 775 q 523 784 567 779 q 440 792 479 789 q 375 794 400 794 q 251 767 289 794 q 214 679 214 740 q 233 614 214 638 q 295 578 253 590 q 406 551 338 565 q 535 515 485 536 q 611 455 586 493 q 636 347 636 417 q 617 247 636 297 q 575 163 599 196 q 603 131 592 149 q 619 87 614 113 q 625 22 625 61 q 607 -86 625 -40 q 554 -160 589 -132 q 468 -203 519 -189 q 350 -218 417 -218 m 475 210 q 498 264 488 229 q 508 331 508 299 q 492 393 508 371 q 442 427 475 415 q 357 447 408 439 q 289 462 321 454 q 239 478 257 469 q 210 427 224 460 q 196 365 196 394 q 229 284 196 307 q 339 247 263 261 q 392 235 367 242 q 438 223 417 229 q 475 210 460 217 z "},"©":{"ha":896,"x_min":81,"x_max":817,"o":"m 447 222 q 258 273 342 222 q 128 410 175 324 q 81 603 81 497 q 128 797 81 711 q 258 934 175 883 q 449 985 342 985 q 641 933 558 985 q 770 794 724 882 q 817 603 817 707 q 770 410 817 497 q 640 273 724 324 q 447 222 557 222 m 453 382 q 356 406 392 382 q 305 478 321 429 q 289 606 289 528 q 305 727 289 679 q 358 799 321 775 q 457 824 394 824 q 519 818 489 824 q 563 807 549 813 l 558 726 q 512 733 540 729 q 460 736 483 736 q 409 722 426 736 q 387 679 392 708 q 382 606 382 650 q 398 504 382 539 q 460 469 414 469 q 512 473 483 469 q 558 479 540 476 l 563 400 q 517 388 547 394 q 453 382 486 382 m 447 286 q 604 328 536 286 q 712 443 672 371 q 751 603 751 515 q 728 726 751 668 q 665 828 706 785 q 568 896 624 871 q 447 921 513 921 q 291 878 360 921 q 183 763 222 835 q 144 603 144 690 q 183 443 144 515 q 291 328 222 371 q 447 286 360 286 z "},"®":{"ha":896,"x_min":81,"x_max":817,"o":"m 447 222 q 258 273 342 222 q 128 410 175 324 q 81 603 81 497 q 128 797 81 711 q 258 934 175 883 q 447 985 342 985 q 641 933 558 985 q 770 794 724 882 q 817 603 817 707 q 770 410 817 497 q 641 273 724 324 q 447 222 558 222 m 447 286 q 604 328 536 286 q 712 443 672 371 q 751 603 751 515 q 728 726 751 668 q 665 828 706 785 q 568 896 624 871 q 447 921 513 921 q 326 896 382 921 q 230 828 271 871 q 167 726 189 785 q 144 603 144 668 q 167 480 144 538 q 230 378 189 422 q 326 310 271 335 q 447 286 382 286 m 293 390 l 293 814 l 451 814 q 567 784 525 814 q 608 679 608 754 q 594 597 608 626 q 542 550 581 567 l 615 390 l 522 390 l 457 536 l 382 536 l 382 390 l 293 390 m 382 606 l 456 606 q 508 622 492 606 q 524 674 524 639 q 504 726 524 710 q 442 743 485 743 l 382 743 l 382 606 z "},"™":{"ha":926,"x_min":119,"x_max":828,"o":"m 438 460 l 438 878 l 543 878 l 632 599 l 724 878 l 828 878 l 828 460 l 750 460 l 750 761 l 665 482 l 601 482 l 517 761 l 517 460 l 438 460 m 226 461 l 226 803 l 119 803 l 119 878 l 397 878 l 397 803 l 310 803 l 310 461 l 226 461 z "},"°":{"ha":776,"x_min":190,"x_max":586,"o":"m 388 578 q 245 632 300 578 q 190 775 190 686 q 245 918 190 863 q 388 974 300 974 q 531 918 476 974 q 586 775 586 863 q 531 632 586 686 q 388 578 476 578 m 389 656 q 475 689 442 656 q 508 775 508 722 q 475 861 508 828 q 389 894 442 894 q 303 861 335 894 q 271 775 271 828 q 303 689 271 722 q 389 656 335 656 z "},"|":{"ha":331,"x_min":100,"x_max":229,"o":"m 100 -307 l 100 994 l 229 994 l 229 -307 l 100 -307 z "},"¦":{"ha":335,"x_min":103,"x_max":232,"o":"m 103 471 l 103 994 l 232 994 l 232 471 l 103 471 m 103 -307 l 103 218 l 232 218 l 232 -307 l 103 -307 z "},"€":{"ha":776,"x_min":36,"x_max":717,"o":"m 36 522 l 36 610 l 639 610 l 639 522 l 36 522 m 36 310 l 36 396 l 639 396 l 639 310 l 36 310 m 458 -14 q 288 16 354 -14 q 183 106 221 46 q 131 253 146 165 q 115 457 115 340 q 131 665 115 576 q 183 813 146 754 q 288 902 221 872 q 460 932 356 932 q 553 927 506 932 q 644 915 601 922 q 717 900 686 907 l 711 796 q 641 806 682 800 q 556 815 600 811 q 478 818 513 818 q 360 797 404 818 q 290 731 315 775 q 257 619 265 688 q 249 457 249 551 q 257 297 249 364 q 290 185 265 229 q 359 121 314 142 q 479 100 404 100 q 599 107 533 100 q 713 121 665 114 l 717 15 q 640 1 683 8 q 551 -10 597 -6 q 458 -14 504 -14 z "},"¢":{"ha":776,"x_min":131,"x_max":628,"o":"m 382 -114 l 382 51 q 241 83 297 56 q 158 174 185 111 q 131 346 131 238 q 158 514 131 449 q 242 610 186 579 q 381 646 299 642 l 381 810 l 474 810 l 474 643 q 555 636 511 642 q 626 625 599 631 l 621 525 q 566 530 601 528 q 495 533 531 532 q 435 535 460 535 q 302 492 340 535 q 264 346 264 449 q 279 237 264 278 q 334 178 294 196 q 442 161 374 161 q 502 163 468 161 q 568 167 536 164 q 624 171 600 169 l 628 71 q 556 60 600 65 q 474 54 511 56 l 474 -114 l 382 -114 z "},"¤":{"ha":776,"x_min":76,"x_max":700,"o":"m 365 101 q 242 149 296 110 q 160 247 189 188 q 139 374 132 306 q 183 497 144 443 q 283 578 222 550 q 411 600 343 607 q 533 556 479 594 q 615 456 586 517 q 638 328 643 396 q 592 206 631 260 q 493 125 553 153 q 365 101 433 97 m 150 39 l 76 113 l 215 251 l 289 179 l 150 39 m 378 201 q 455 217 419 199 q 513 267 490 235 q 538 342 535 300 q 522 417 540 382 q 471 476 503 453 q 397 501 439 499 q 321 485 356 503 q 263 434 286 467 q 238 360 240 401 q 253 284 235 319 q 305 226 272 249 q 378 201 338 204 m 215 450 l 76 589 l 150 663 l 289 524 l 215 450 m 626 39 l 488 179 l 560 251 l 700 113 l 626 39 m 560 450 l 488 524 l 626 663 l 700 589 l 560 450 z "},"$":{"ha":776,"x_min":86,"x_max":694,"o":"m 288 -172 l 358 450 l 431 439 l 361 -172 l 288 -172 m 429 496 l 365 565 l 444 1101 l 507 1043 l 429 496 m 393 -12 q 295 -8 350 -12 q 187 5 240 -3 q 93 18 133 13 l 104 122 q 195 112 143 118 q 299 102 247 106 q 386 99 350 99 q 485 117 446 99 q 545 171 525 135 q 565 264 565 207 q 547 337 565 310 q 487 380 529 364 q 374 410 444 396 q 211 458 275 431 q 117 538 147 486 q 86 676 86 589 q 124 826 86 769 q 228 907 161 882 q 388 932 296 932 q 482 927 429 932 q 585 915 535 922 q 674 903 636 908 l 664 797 q 574 807 625 801 q 476 816 524 813 q 397 819 428 819 q 297 805 338 819 q 235 761 256 790 q 215 686 215 732 q 235 604 215 632 q 301 560 256 576 q 422 526 347 544 q 547 492 494 511 q 631 445 599 472 q 678 376 663 418 q 694 274 694 335 q 658 108 694 171 q 553 16 621 44 q 393 -12 486 -12 z "},"£":{"ha":776,"x_min":104,"x_max":676,"o":"m 104 0 l 104 113 l 218 113 l 218 482 l 125 482 l 125 576 l 218 576 l 218 650 q 231 791 218 736 q 269 876 243 846 q 338 919 296 907 q 436 931 379 931 q 501 926 465 931 q 571 917 536 922 q 629 907 606 913 l 626 804 q 572 810 603 807 q 510 815 542 813 q 456 817 479 817 q 387 801 411 817 q 353 749 363 786 q 343 642 343 711 l 343 576 l 572 576 l 572 482 l 343 482 l 343 113 l 546 113 l 657 135 l 676 25 l 557 0 l 104 0 z "},"¥":{"ha":781,"x_min":29,"x_max":751,"o":"m 325 0 l 325 222 l 79 222 l 79 315 l 325 315 l 325 401 l 313 435 l 78 435 l 78 526 l 260 526 l 29 917 l 175 917 l 392 554 l 606 917 l 751 917 l 522 526 l 701 526 l 701 435 l 471 435 l 457 401 l 457 315 l 703 315 l 703 222 l 457 222 l 457 0 l 325 0 z "},"∕":{"ha":596,"x_min":42,"x_max":556,"o":"m 161 -29 l 42 8 l 436 986 l 556 947 l 161 -29 z "},"+":{"ha":776,"x_min":75,"x_max":701,"o":"m 329 28 l 329 292 l 75 292 l 75 407 l 329 407 l 329 667 l 444 667 l 444 407 l 701 407 l 701 292 l 444 292 l 444 28 l 329 28 z "},"−":{"ha":776,"x_min":92,"x_max":685,"o":"m 92 292 l 92 407 l 685 407 l 685 292 l 92 292 z "},"×":{"ha":776,"x_min":90,"x_max":686,"o":"m 172 51 l 90 132 l 310 349 l 92 565 l 172 646 l 388 426 l 606 646 l 686 565 l 465 349 l 686 132 l 604 51 l 388 269 l 172 51 z "},"÷":{"ha":776,"x_min":75,"x_max":701,"o":"m 75 292 l 75 407 l 701 407 l 701 292 l 75 292 m 324 39 l 324 186 l 451 186 l 451 39 l 324 39 m 324 513 l 324 660 l 451 660 l 451 513 l 324 513 z "},"=":{"ha":776,"x_min":88,"x_max":688,"o":"m 88 424 l 88 539 l 688 539 l 688 424 l 88 424 m 88 160 l 88 274 l 688 274 l 688 160 l 88 160 z "},">":{"ha":776,"x_min":115,"x_max":688,"o":"m 115 14 l 115 150 l 565 351 l 115 547 l 115 681 l 688 408 l 688 290 l 115 14 z "},"<":{"ha":776,"x_min":88,"x_max":660,"o":"m 660 14 l 88 290 l 88 408 l 660 681 l 660 547 l 210 351 l 660 150 l 660 14 z "},"±":{"ha":776,"x_min":75,"x_max":701,"o":"m 329 240 l 329 406 l 75 406 l 75 518 l 329 518 l 329 686 l 444 686 l 444 518 l 701 518 l 701 406 l 444 406 l 444 240 l 329 240 m 75 44 l 75 157 l 701 157 l 701 44 l 75 44 z "},"~":{"ha":776,"x_min":92,"x_max":686,"o":"m 529 261 q 463 273 503 261 q 383 301 424 285 q 308 330 343 318 q 253 342 272 342 q 204 331 232 342 q 151 307 176 321 q 106 279 125 293 l 92 383 q 138 417 111 400 q 197 445 165 433 q 256 457 228 457 q 320 445 282 457 q 397 417 358 433 q 472 388 436 400 q 531 376 507 376 q 576 387 550 376 q 627 412 601 397 q 672 439 653 426 l 686 335 q 642 302 668 319 q 587 273 617 285 q 529 261 557 261 z "},"¬":{"ha":776,"x_min":81,"x_max":692,"o":"m 579 179 l 579 396 l 81 396 l 81 506 l 692 506 l 692 179 l 579 179 z "},"^":{"ha":789,"x_min":76,"x_max":711,"o":"m 76 442 l 329 918 l 451 918 l 711 442 l 576 442 l 390 801 l 210 442 l 76 442 z "},"µ":{"ha":736,"x_min":86,"x_max":651,"o":"m 308 -14 q 170 23 218 -14 q 104 136 122 60 q 86 333 86 213 l 86 696 l 215 696 l 215 335 q 224 197 215 249 q 260 124 232 146 q 346 101 289 101 q 448 117 401 101 q 524 146 494 132 l 524 696 l 651 696 l 651 0 l 524 0 l 524 47 q 428 4 479 22 q 308 -14 378 -14 m 94 -257 l 94 439 l 222 439 l 222 -257 l 94 -257 z "},"%":{"ha":793,"x_min":38,"x_max":757,"o":"m 292 -33 l 224 -14 l 504 950 l 572 929 l 292 -33 m 196 531 q 110 552 144 531 q 56 619 75 574 q 38 733 38 664 q 56 845 38 801 q 110 910 75 889 q 196 931 144 931 q 281 910 246 931 q 334 845 315 889 q 353 733 353 801 q 334 619 353 664 q 281 552 315 574 q 196 531 246 531 m 196 611 q 232 624 218 611 q 251 665 246 638 q 257 733 257 692 q 251 799 257 774 q 232 838 246 825 q 196 850 218 850 q 158 838 172 850 q 139 799 144 825 q 133 733 133 774 q 139 665 133 692 q 158 624 144 638 q 196 611 172 611 m 600 -14 q 513 8 549 -14 q 459 74 478 29 q 440 189 440 119 q 459 301 440 257 q 514 365 478 344 q 600 386 550 386 q 685 365 650 386 q 739 301 721 344 q 757 188 757 257 q 738 73 757 118 q 685 7 719 28 q 600 -14 650 -14 m 600 67 q 637 79 624 67 q 656 119 650 92 q 663 188 663 146 q 656 255 663 229 q 637 292 650 281 q 600 304 624 304 q 563 292 576 304 q 542 255 549 281 q 536 189 536 229 q 542 119 536 147 q 563 79 549 92 q 600 67 576 67 z "},"¨":{"ha":429,"x_min":15,"x_max":414,"o":"m 296 853 l 296 989 l 414 989 l 414 853 l 296 853 m 15 853 l 15 989 l 133 989 l 133 853 l 15 853 z "},"`":{"ha":357,"x_min":4,"x_max":354,"o":"m 310 815 l 4 926 l 61 1033 l 354 896 l 310 815 z "},"´":{"ha":385,"x_min":35,"x_max":383,"o":"m 78 815 l 35 896 l 329 1033 l 383 926 l 78 815 z "},"ˆ":{"ha":418,"x_min":11,"x_max":436,"o":"m 11 815 l 178 1015 l 265 1015 l 436 815 l 317 815 l 224 933 l 132 815 l 11 815 z "},"˚":{"ha":368,"x_min":42,"x_max":340,"o":"m 192 750 q 85 791 128 750 q 42 896 42 832 q 62 969 42 936 q 115 1020 82 1001 q 192 1039 149 1039 q 298 999 256 1039 q 340 896 340 958 q 298 791 340 832 q 192 750 256 750 m 192 822 q 229 832 214 822 q 254 858 244 842 q 264 896 264 875 q 243 946 264 925 q 192 967 222 967 q 156 957 172 967 q 129 931 139 947 q 119 896 119 915 q 141 843 119 864 q 192 822 163 822 z "},"˜":{"ha":367,"x_min":-31,"x_max":417,"o":"m 293 839 q 245 849 272 839 q 191 871 218 858 q 140 893 164 883 q 99 903 115 903 q 49 884 81 903 q -4 849 18 865 l -31 926 q 6 959 -15 942 q 52 988 28 976 q 99 1000 76 1000 q 148 990 121 1000 q 202 969 175 981 q 253 947 229 957 q 292 938 276 938 q 339 956 308 938 q 390 992 369 974 l 417 913 q 382 879 403 896 q 338 851 361 863 q 293 839 314 839 z "},"¯":{"ha":361,"x_min":-8,"x_max":382,"o":"m -8 857 l -8 953 l 382 953 l 382 857 l -8 857 z "},"¸":{"ha":449,"x_min":104,"x_max":365,"o":"m 231 -304 q 159 -301 194 -304 q 104 -294 124 -299 l 108 -222 q 149 -224 119 -224 q 196 -225 179 -225 q 240 -213 225 -225 q 256 -175 256 -201 q 240 -141 256 -150 q 196 -132 225 -132 l 143 -132 l 143 3 l 207 3 l 207 -64 q 295 -74 260 -64 q 348 -107 331 -83 q 365 -176 365 -131 q 328 -274 365 -244 q 231 -304 292 -304 z "},"ʼ":{"ha":322,"x_min":44,"x_max":247,"o":"m 44 657 l 103 989 l 247 989 l 151 657 l 44 657 z "},"ʻ":{"ha":322,"x_min":43,"x_max":246,"o":"m 246 1057 l 186 725 l 43 725 l 139 1057 l 246 1057 z "}}}
